<svg xmlns="http://www.w3.org/2000/svg" version="1.1" xmlns:xlink="http://www.w3.org/1999/xlink" xmlns:svgjs="http://svgjs.dev/svgjs" width="950.71" height="1045.26"><svg xmlns="http://www.w3.org/2000/svg" viewBox="0 0 950.71 1045.26">
  <g fill="#000">
    <path stroke-width="0" d="m59.52,581.33c16.37-9.83,33.9-18.02,52.58-24.57,18.67-6.54,37.67-12.78,57-18.67,19.32-5.9,37.84-11.79,55.52-17.69,17.69-5.89,33.41-13.42,47.17-22.6,13.76-9.17,24.72-20.64,32.92-34.4,8.18-13.76,12.28-30.79,12.28-51.1h.98c-4.59-36.03-17.86-62.56-39.8-79.6-21.96-17.03-46.68-25.55-74.2-25.55-15.72,0-31.62,2.63-47.66,7.87-16.06,5.25-30.96,13.11-44.71,23.58-13.76,10.49-26.04,23.1-36.85,37.84-10.81,14.74-18.84,31.94-24.08,51.59l-15.72-2.94c5.9-22.93,15.06-42.75,27.52-59.46,12.44-16.7,26.53-30.62,42.26-41.76,15.72-11.13,32.92-19.32,51.59-24.57,18.67-5.23,37.18-7.86,55.52-7.86,20.96,0,41.27,3.11,60.93,9.33,19.65,6.24,37.01,15.57,52.08,28.01,15.06,12.45,27.18,27.52,36.36,45.21,9.17,17.69,13.76,38.01,13.76,60.93v357.72h-14.74l-40.29-79.6c-17.69,30.14-42.6,53.07-74.69,68.79-32.11,15.72-65.84,23.59-101.22,23.59-17.04,0-33.41-1.97-49.14-5.9-28.18-7.2-50.12-19.98-65.84-38.32-15.72-18.33-25.06-38.48-28.01-60.44-2.95-21.94.32-43.88,9.83-65.84,9.49-21.94,25.7-39.8,48.65-53.56Zm59.95,189.67c7.86,3.93,16.05,6.72,24.57,8.35,8.51,1.64,17.35,2.46,26.53,2.46,17.69,0,35.04-2.95,52.08-8.84,17.03-5.9,32.43-14.08,46.19-24.57,13.76-10.47,25.21-22.44,34.4-35.87,9.17-13.42,14.4-27.34,15.72-41.76v-207.36c-9.83,21.62-24.57,38.01-44.22,49.14-19.65,11.15-40.78,20.48-63.39,28.01-22.6,7.54-45.21,15.57-67.81,24.08-22.6,8.53-41.77,21.3-57.49,38.33-10.49,11.79-17.54,25.89-21.13,42.26-3.61,16.39-3.93,32.77-.98,49.14,2.95,16.38,9.17,31.45,18.67,45.21,9.49,13.75,21.77,24.25,36.85,31.45Z"></path>
    <path stroke-width="0" d="m370.1,254.53h69.77V24.57l-39.31-16.71V0h96.31v254.53h131.69v14.74h-131.69v365.58c-.66,22.28,1.63,40.46,6.88,54.54,5.24,14.1,12.44,25.06,21.62,32.92,13.1,11.15,29.81,16.71,50.12,16.71,27.52,0,56.66-9.83,87.46-29.48l7.86,9.83c-21.62,13.11-41.44,22.11-59.46,27.03-18.03,4.91-34.24,7.37-48.65,7.37-41.27,0-72.08-12.13-92.38-36.36-20.31-24.23-30.46-57-30.46-98.27v-349.86h-69.77v-14.74Z"></path>
    <path stroke-width="0" d="m713.72,519.53c24.23,12.45,49.78,18.67,76.65,18.67,30.13,0,58.63-7.37,85.5-22.11,26.86-14.74,47.82-35.21,62.9-61.42,1.3,1.32,3.76,2.63,7.37,3.93,3.59,1.32,5.07,2.63,4.42,3.93-19.01,32.77-44.39,56.85-76.16,72.23-31.79,15.38-65.03,23.09-99.75,23.09-41.27,0-79.94-9.49-115.96-28.5-41.27-21.62-72.08-53.07-92.38-94.35-20.31-41.27-30.46-84.84-30.46-130.7s10.15-89.43,30.46-130.71c20.3-41.27,51.1-72.72,92.38-94.34,36.02-18.99,74.69-28.5,115.96-28.5,34.72,0,67.96,7.71,99.75,23.09,31.77,15.4,57.15,39.48,76.16,72.23.65,1.32-.83,2.63-4.42,3.93-3.61,1.32-6.07,2.63-7.37,3.93-15.08-26.2-36.04-46.68-62.9-61.42-26.87-14.74-55.37-22.11-85.5-22.11-26.87,0-52.42,6.23-76.65,18.67-25.55,13.12-47.02,31.13-64.37,54.05-17.37,22.94-30.31,48-38.82,75.18-8.52,27.2-12.78,55.7-12.78,85.5s4.25,58.47,12.78,85.99c8.51,27.52,21.45,52.58,38.82,75.18,17.35,22.6,38.82,40.78,64.37,54.54Z"></path>
  </g>
  <path fill="#a36f43" stroke-width="0" d="m339.41,1006.93c24.23,12.45,49.78,18.67,76.65,18.67,30.13,0,58.63-7.37,85.5-22.11,26.86-14.74,47.82-35.21,62.9-61.42,1.3,1.32,3.76,2.63,7.37,3.93,3.59,1.32,5.07,2.63,4.42,3.93-19.01,32.77-44.39,56.85-76.16,72.23-31.79,15.38-65.03,23.09-99.75,23.09-41.27,0-79.94-9.49-115.96-28.5-41.27-21.62-72.08-53.07-92.38-94.35-20.31-41.27-30.46-84.84-30.46-130.7s10.15-89.43,30.46-130.71c20.3-41.27,51.1-72.72,92.38-94.34,36.02-18.99,74.69-28.5,115.96-28.5,34.72,0,67.96,7.71,99.75,23.09,31.77,15.4,57.15,39.48,76.16,72.23.65,1.32-.83,2.63-4.42,3.93-3.61,1.32-6.07,2.63-7.37,3.93-15.08-26.2-36.04-46.68-62.9-61.42-26.87-14.74-55.37-22.11-85.5-22.11-26.87,0-52.42,6.23-76.65,18.67-25.55,13.12-47.02,31.13-64.37,54.05-17.37,22.94-30.31,48-38.82,75.18-8.52,27.2-12.78,55.7-12.78,85.5s4.25,58.47,12.78,85.99c8.51,27.52,21.45,52.58,38.82,75.18,17.35,22.6,38.82,40.78,64.37,54.54Z"></path>
</svg><style>@media (prefers-color-scheme: light) { :root { filter: none; } }
@media (prefers-color-scheme: dark) { :root { filter: none; } }
</style></svg>