<svg xmlns="http://www.w3.org/2000/svg" viewBox="0 0 2321.94 1915.57">
    <g class="aus--vic">
        <path d="M1909.09,1658.91l-2.06-.87-.28-.16-1.06-1.06-.35-.48-.25-.55.13-.3-2.79-5.97-.97-1.5-.52-.76-.9-1.17-1-1.12-.92-.85-1.55-1.38-1.08-.79-.52-.33-.62-.3-.71-.25-1.44-.46-1.11-.28-.51-.03-.89.03-.79.11-.62.27-.22.22-.17.27-.49,1.17-.11.3-.1.38-5.53-.63-4.61-7.32.62-1.36.49.03.27-.19-.03-.38-1.43-2.23-.24-.21-.33-.13-1.16-.3-.82-.16-1.36-.14-1.28.05-.37.1-2.15.97-.57.32-.48.4-.52.35-.36.11-2.38.25-.44-.06-1.66-.71-.28-.16-.51-.38-8.24-6.57.02-1.27.9-4.07,3.17-1.25.89-.03.4-.06.62-.27.22-.22,1.5-1.96.33-.52-.02-.35-.08-.3-3.88-6.54-.22-.24-2.07-1.05-.33-.1-10.17.51-.4.06-.27.21-2.19,6.24-10.07,8.33-.68.24-4.72.65-2.15-.21-.29-.16-7.86-7.22,1.2-.27.93.44.87.13,1.43.05,1.99-.27.75-.16,1.36-.38,1.73-.51,2.2-.92.27-.17.21-.22,7.22-9.31.51-.78.3-.52.21-.65-.03-.7-.98-3.29-.71-1.31-.33-.48-6.78-8.27-.22-.22-1.11-.68-.66-.27-.76-.24-.43-.06-.49-.03-.35.11-4.17,1.52-.3.14-.27.21-.65.62-3.74,2.83-2.8,2.07-.74.54-1.35.84-7.65,4.44-7.4.43-.37.1-.6.27-.27.19-.22.21-.35.52-.16.68.02.32.24.55.84.51.38.11.87.13,5.78.59.89-.02,1.14-.21.71-.19,1.68-.59.92-.41.52-.32.22-.22.74-.57.3-.13.71-.19.44-.05,1.25.19.78.19.93.44.44.41.35.49.31.82.08.67-.73,2-2.94,3.56-1.43.84-1.24.13-.43-.06-.66-.27-.27-.22-.66-.3-.71-.21-.49-.03-.79.11-8.05,1.28-.62.27-1.51.71-17.07,9.04-.25.17-3.18,2.53-.22.22-.18.25-.08.33-4.59,5.12-.21.21-.71.62-3.06,2.64-.3.14-4.01.93-1.6.19-1.08.32-.89.44-.74.57-.22.22-.35.52-.4,1.28-.13.33-.13.25-.22.22-6.49,3.69-.62.27-.41.05-1.39-.36-.33-.13-.27-.17-1-.81-1.74-1.69-.35-.49-.44-.41-.29-.17-2.69-1.03-2.22-.54-.44-.06-.44-.03-8.73-2.34-2.39-1.98-.55-.33-1.82-.95-2.58-1.17-.33-.14-1.14-.32-.87-.14-1.35.03-.79.09-.49-.03-5.93-1.77-3.07-1.19-.32-.17-2.38-1.65-.98-.79-7.38-4.36-4.39-2.42-8.35-2.74-.43-.06-5.64.57-.36.09-.32.13-.25.17-.19.25.02.35.22.21-.19.27-.35.08-.81.09-.89.02-3.2-.05-.49-.05-.38-.06-.33-.14-3.55-1.58-1.47-.81-3.99-2.39-.54-.35-.89-.81-.32-.14-8.02-1.33-3.59-.05-.84.05-1.25.17-2.09.57-.63.27-2.46,1.5-.54.33-.36.51-.08.32.05.7.11.27.33.49.22.22.56.35.87.84.29.49-.14.65-.22.21-.4.1-4.07.55-6.68-2.55-2.96-2.49-.44-.76-.43-.46-1.11-1.03-4.45-3.48-2.84-2.01-2.66-1.85-2.66-1.46-1.19-.63-1.25-.57-4.43-1.77-1.36-.49-1.93-.57-.06-2.44-.02-2.82.05-5.73-.05-35.48.05-112.47-.05-31.36.07-42.13.31.16.38.44,1.02,1.46,1.58,1.43.88.66.42.23.94.23,1.13.11,2.04-.1,1.87.16,5.37.48,9.06,3.47.59.28,6.08,3.1.41.78.43.47.41.06.35-.08,1.92-1.05.52-.4.22-.22.82-1.33,1.68-1.82.51-.3,1.28-.4,3.29-1.01.38-.1,1.25.19,2.03.79,4.77.9,4.8-.38.4-.05.3-.14,1.31-.82.3-.13.73-.1.89-.02.78.19,6.05,2.31.27.14,4.21,2.33.47.4,7.71,10.88-.3,1.43.27,6.27.02.3.16.25.78.57,1.17.63,1.88,1.24.7.57.38.46.32.49,2.85,6.16.11.67-.21.6.47,1.14.49.38.48.35,1.04.4,3.71.84.38-.06.52-.3.22-.25,2.06-2.34.49-2.61,1.24-3.82.25-.55.6-.74.52-.35,2.68-.73.43-.05.43.08,2.74,1.68.49.4.16.24.4,1.17,6.72,2.25,3.01.27,2.63.19.47.03.78-.1.76-.09.48.03.73.25,7.16,3.09.32.14,4.15,2.01.27.17.55.66.06.32-.06,3.26-.05.35-.29.57-.27.17-.21.22-.3.57-.27,3.79.02.36.66,4.48.35,1.19.29.89.38.81,2.11,3.93.33.49.6.67,3.29,1.33.73.21,1.6.22,2.38.52.38.1.27.17,1.74,2.39.13.27.05.32-.3.6-.38.49-.48.4-.16.22-.22.68.02.35.11.29.33.49.38.41.49.43,1.55,1.11,1.44.78.33.09,1.9-.38.63-.22.43.06,3.18,1.04.44.41,8.54,5.26,7.54,3.37,1.12.32,1.09.57,1.14,1.05.32.54,1.02,1.46,1.69,1.71.48.41,5.23,3.85.63.32,1.81.22.74.21.81.52.89.84.66.97.62,1.01.68,1.33.36.79.59,1.36,10.72,10.28,1.14,1.03.27.17,6.72,3.18.38.13,2.03.4,1.82-.38,8.25-1.92-.48-4.29-.17-.25-.25-.9.06-.7,1.88-5.4.13-.3.38-.49.52-.4.3-.13.35-.1,5.46-1.11,1.16-.17,6.59-.16.43.06.81.52.93.79.33.1,1.33.16,3.48.19.82-.11.98-.32,1.49-1.12,1.2-.55,1.01-.25,3.41-.59.77-.11.44-.02.41.06.33.14.54.33,3.45,2.3,2.31,2.03.79.86.51.43,2.68,1.69.87.48,3.55,1.12,16.3,2.5,11.8.84,5.8-1.84.33-.52,1.35-1.3.98-.3,2.9-.24.38-.02,5.27.68.85.13,2.99,2.2,1.69.98,10.14,2.61,2.6.62,7.31.45.56-.03.42-.07,8.95-2.66,5.16-.4,2.68-2.63.16-.32,2.12-2.19.51-.41.33-.09,4.31-.52.43-.02.43.06.32.13.51.36,6.86.81,3.39-1.46.68-.16.49-.02.7.19,9.19,3.25,1.17.59,4.73,2.44.56.33,1.46,9.2,1.17,9.11.11.67.43.79.59.68.92.81.78.54.84.49.24.21.35.47,4.59,7.97.13.24.16.62-.05.78-.22,1.38-.35.97-.32.49-1.2,1.38-1.03,1.16-.41.46-1.84,3.17,2.44.52.43.06,2.04-.27.44.05,6.18,2.55,3.29,1.36,5.19,2.17,6.62,2.71,15.63,6.34,13.29,5.39,10,4.02,14.76,5.92,12.4,4.94,12.91,5.1.59.26-.22.45-.25.19-3.82,1.55-.35.11-4.15.3-1.71.11-.92.02-1.76,2.19-3.78,5.23-.21.22-.54.33-5.05,2.01-.51.03-.79.13-2.88,1.16-2.74,1.41-8.43.68-3.12-.09-9.95-.05-14.07.24-.84.09-1.96.27-1.09.27-.7.22-5.39.27-9.4-.28-10.53.57-1.58.25-4.25.78-13.31,3.42-1.09.3-1,.35-5.17,1.95-4.67,1.98-.6.29-1.13.65-4.53,2.63-3.82,2.31-2.66,1.73-6.35,4.64-3.26,2.47-9.09,7.13-1.14,1.03-.43.4-.21.22-3.85,3.58-6.86,6.24-.68.62-.73.59-5.47,3.79-1.77.73-.13-.27-.33-.1-.49.02-9.63.82-.81.11-8.05,1.47-4.02.95-3.83-.73-.46-.41-.33-.13-.49-.02-4.57.43-1.21.17-.35.1-.62.32-.43.4-1.73,1.81-.13.3.13.27,5.37,8.66.17.19.35.14.49.02.35-.09.32-.14,5.64-3.26.22-.17.16-.27.27-1.41.43-1.66.21-.22.41-.06,1.31.17.29.14.17.27.13.27.08.32.7,14.92-.08.33-3.17,3.07-.27.19-.87.46-.76.16-.49-.03Z" fill="currentColor"/>
        <path d="M1849,1617.91l-2.63-.95-.22-.21-.48-1.87-.14-.63,1.27-3.6.27-.17.44-.02,8.17,1.38.33.14.24.21,1.58,1.43.46.46.17.24-.08.35-.22.22-.41.13-1.31-.11-2.17.11-.35.1-.57.35-2.57,2.22-.43.44-1.36-.21Z" fill="currentColor"/>
        <path d="M1849.24,1625.02l-.92-.82-.55-.3-.66-.27-1.55-.4-.93-.02-.79.11-.71.19-2.63.21-3.31.24-.44-.03-.17-.24.38-.48,2.36-2.07,1.01-.71.62-.27.7-.19,3.55-.54.79-.11.49.03.33.14.84.51.22.21,2.99,5.51-.16.27-.41.05-1.03-1.01Z" fill="currentColor"/>
        <path d="M1917.45,1638.94l-2.54-1.12-.32-.17-.48-.4-.35-.49.11-.3.22-.22.62-.27.4-.06,4.72.19.49.03,3.91.52.38.13.24.17-.08.33-.3.14-.41.06-.94.11-.89-.16-1.33.02-.76.19-.51.36-1.49,1.16-.71-.22Z" fill="currentColor"/>
    </g>
    <g class="aus--sa">
        <path d="M1296.53,1419.79l-1.38-1.82-.76-1.58-1.35-1.55-6.15-6.54-8.2-7.02-.51-.36-4.04-2.68-.35-.17-1.03-.36-.46-.06-.4.03-.35.08-2.98.87-.27.16-.14.3-.38.46-.51.38-.78.05-.41-.1-.24-.19-.05-.32.43-.92,2.23-4.24,2.8-3.77.27-.16.35-.08.25.19-.11,1.09-.24.71-.06.38.05,1,.14.25.19.22,7.35,6.45,2.38,1.58.35.13.48.06.38-.03,4.91-.95.35-.08.32-.16.11-.33-.14-.25-.78-.22-.41-.08-2.22-.17-.41-.08-2.26-.92-.33-.47-.51-1.41-.1-.28-.27-.85-.03-.32.02-.35.11-.35.65-.67.16-.3.11-.33.08-.7-2.66-10.99-2.23-5.43-2.14-4.02.02-.35-.43-5.61-.13-.6-.29-.51-3.66-4.56-7.78-7.35-1.36-1.25-2.96-1.95-2.5-1.55-.79-.54-4.67-3.29-.14-.25.36-1.93.27-.67.58-1.11.21-.29.22-.68.03-.71-.03-.32-.29-2.25-.3-1.38-1.71-4.4-1.11-2.39-5.67-9.9-.19-.22-.59-.36-.71-.21-5.1-1.44-10.04,1.01-.32.13-.19.25-.68.65-.51.36-2.82,1.24-.35.06-.35-.13-.25-.19-2.99-2.26-.13-.6.03-.4.22-.63-.03-.36-.17-.54-3.69-8.6-.29-.48-.19-.22-.44-.41-3.28-5.83-3.4-6.07-.14-.3-.13-.57.19-.25.32-.11.87.08,3.74.55,2.49,1.01-.27.63-.08.38-.02.36.13,1.28.3.82.14.25.25.19.46.03.17-.22.38-1.44,2.77-2.9.43-.49.95-2.52.02-.32-.86-4.26-.22-.55-.33-.47-2.82-3.39-1-1.08-1.22-.97-2.34-1.66-1.27-.25-.76.05-8.66,2.39-2.63,2.6-.22.21-.6.22-.35.08-.41-.02-1.33-.16-.37-.13-.08-.25.02-.35.19-4.04.03-.36,1.32-2.66.16-.28.22-.21.35-.06.29.16.38.44.11.6.3.21,1.14-.08.6-.22.22-.21.35-.55.11-.33.02-.36-.17-.25-2.69-3.47-1.62-1.73-2.69-2.76-3.97-2.11-1.77-.76-1.74-1.11-1.66-1.27-.24-.21-.08-.28.19-.28.81-.95.11-.35-.08-.28-.19-.22-.3-.16-2.71-.71-.92-.08-.33.03-.3.11-.27.16-.57.74-.16.33-.05,1.66-.13.38-.14.25-.19.25-.46.4-3.9,1.98-.32.16-.33.03-3.63.14-10.9-.9-3.39-.38-1.63-.27-.24-.19-2.49-2.23-.62-.65-.43-.41-.73-.59-.89-.49-1.04-.35-.41-.02-2.54-.46-6.51-4.88-1.36-1.5-.3-.21-2.22-1-.7-.27-.84-.17-10.06-.86-2.22.17-1.76.33-1.68.44-1.17.46-.81.48-.19.22-.14.29-1.95,1.93-4.75,1.46-.35.06-3.4.19-3.49-.57-.9-.54-.68-.57-.38-.38-.84-.89-.98-1.09-6.3-5.07-12.04-7.65-2.66-1.46-5.84-2.95-9.93-4.28-1.33-.55-5.94-2.42-5.02-1.81-5.46-1.79-.79-.21-.86-.14-.41-.02-1.14.05-.33.06-.62.22-1.03.67-1.19.97-1.36,1.25-.49.35-1.11.59-.57.25-8.98,2.99-.68.13-2.53.25-1.14.1-1.12.02-1.24-.08-1.66-.11-3.34-.29-21.73-1.58-1.54.02-4.99.16-12.15.81-1.82.21-.65.13-.3.11-.13.14-.4.13-2.27.49-7.82.41-12.86.97-13.89,1.12-9.79,1.38-1.76.29-1.66.29.02-7.2.02-11.72-.03-18.7-.02-24.71.03-53.53.02-7.93-.02-46.26.02-23.12-.02-82.98-.03-14.27.34-33.87,1.56-.31,15.24.03,34.22-.03,30.41.03,49.39-.03,148.25.03,136.89-.03,28.51.03,53.22-.03h15.22s5.66,0,5.66,0l34.22.02,28.53-.02,102.68.02.02,18.64-.05,16.47.03,122.92.02,11.37.1,1.68-.1,5.32-.05,20.92.05,25.01-.03,35.81-.02,1.25.05,75.72-.02,119.45-.15,2.95-1.02-1.46-.38-.44-.31-.16-.07.97.05,43.4-.05,32.01.05,112.15-.05,33.58.02,7.89.06,2.44-1.16-.24-.97-.08-4.15-.21-.84-.03-.84.08-.71.17-2.33.85-4.37-.11-1.35-.19-.38-.11-4.69-1.96-3.2-1.82-9.82-7.6-.21-.6-.92-1.87-.32-.49-5.37-8.16-6.27-7.74-.79-.62-1.93-1.19-1.24-.62-1.03-.36-.43-.08-.4.05-.22.22-.16.33-1.48-.22-8.7-9.19-1.53-1.81-.95-1.49-2.65-4.21.1-1.74.49.02.36-.1.25-.13.24-.21.22-.22.17-.25.06-.38-.25-2.23-2.52-5.07-.27-.52,1.17-5.02,1.95-1.03.81-.51.95-.81.68-.68.73-.98.46-.84.28-.6.35-1.41.11-.76.11-1.12.05-.7-.03-1.36-.19-3.75-.1-.63-.32-1.16-1.57-3.26-.05-.98-.32-.84-8.38-16.6-1.46-2.57-7.95-8.76-.82-1.16-3.7-3.98-.75-.77-.53-.5-2.01-1.88-2.7-2.44-2.01-1.67-5.7-5.01-6.39-3.88.09-.18.21-.05.52-.02.51.03.29.03.22.07.75.36.34.22.31.22,11.92,8.28,3.45,2.71,4.02,4.02.21.22,5.86,7,.36.46,1.43,1.9,1.76,3.39.59,1.38.62,1,.21.22.14-.3-.14-.95-.25-1.24-.77-2.3-2.6-6.02-.89-1.17-.95-1.11-.62-.68-1.27-1.25-2.87-2.74-2.31-2.01-8.68-6.35-6.25-5.49-1.83-1.11-1.53-.95-.47-.3-.94-.66-.15-.11-.18-.32.06-.39.28-.28-.64-4.28.71-.59,1.11-.63.3-.13.35-.08.78-.08.85.13,3.5,2.22.27.19.25.22.16.21.14.6.05,1.36-.06.4-.14.3-.65,4.07-.02.35.05.32.21.57.21.21.37.11.48.05,4.23.06.35-.08.27-.16.27-.21.27-.57,1.11-4.58.68-7.19.02-.35-.05-.32-.84-5.12-.16-.22-6.21-2.68-1.04-.38-.89-.13-1.6.08-.3.11-.1.35.93.49.05.32-3.14,2.06-.57.3-2.49.57-.74.13-1.27-.13-1.33-.1-.77.08-1.05.24-.65.22-.59.32-.44.4-.54.76-.14.3-.21.68-.11.73.1.63.32.51.25.17.65.23.44.12.9.06.84.16.79.22.56.38.27.49-.06.38-.17.27-2.14,2.01-.21.17-.32.11-1.25.08-3.71-.33-3.71-.54-1.16-.32-.84-.16-1.33-.06-3.71.33-3.23,1.08-.57.28-.73.59-.66.63-.33.55-.55.78-.44.46-.76.51-1.92,1.17-.87.38-.35.08-18.66.89-1.35-.06-.41-.08-.74-.24-.93-.44-.25-.22-2.28-1.65-.25-.19-.11-.28,1.93-3.31.41-.48.9-.79.57-.3,2.06-.52,1.27-.44,2.39-1.08,1.16-.63.79-.49,7.68-6.7.68-.63.17-.25.25-.65,1.38-5.75-.08-1-.11-.28-.3-.49-.25-.54-.19-.57-.05-.32.06-.38.54-2.88.09-.35.57-1.19.78-.97.24-.22.76-.97.25-.65.16-.68-.14-1.31-.76-4.02-.68-2.31-.29-1.58-.03-.36.52-4.24.1-.35.49-.38.3-.13.38-.03-.92-2.33-3.47-4.94-.87-.84-.97-.78-6.13-6.13-.62-.65-.35-.48-.41-.74-.33-.86-1.32-4.31-.4-1.49-.57-1.71-.25-.54-.29-.57-3.66-5.73-2.87-3.75-.21-.22-.55-.33-.41-.08-.35.08-.41.46-.17.25-3.29,5.53-.13.73.05.32.28.9.14.28.16.22.3.14.43.08.3.13.11.27-.13.78-.11.35-.63,1.57-.17.25-1.57,1.52-.98.76-1.58,1-.49.38-.44.43-.47.84-1.7,4.91-.16.73-.21,3.59.11.27.19.22-.16,3.09-.64,3.06-2.2,6.46-.54.73-.33.59-.68,1.49-3.45,10.04.24,2.38.05.32-.11,1.52-.06.38-.37.47-3.41,2.33-.25.13-.35.08-.95-.03-.79-.16-.64-.27-.51-.41-1.6-1.03-1.28-.57-.73-.25-1.61-.36-3.66-.81-.93-.09-1.74.4-10.41,3.17-.57.3-.49.33-.38.51-.24.63-.44.89-.38.51-.41.46-.49.38-.65.16-.4.03-1.33-.03-1.32-.22-1.71-.63-.84-.17-.89-.14-1.19.03-.62.24-.86.44-2.08,1.46-.44.38-.41.49-.68.6-2.72.7-.43-.02-1.65-.73-1.66-2.07.11-.33,1.11-2.47.79-.14.38-.03.62-.24.51-.38.22-.21,2.31-2.33,1.2-2.28.16-.33.06-.35-.02-1.33-.13-.6-.14-.3-.41-.4,1.41-4.89.33-.51,2.01-2.87.27-.17.4-.03.41.1,1.03.4,1.55.76,1.17.33.89.14.78-.08.7-.14,2.6-.89.73-.08,4.12-.35.43.05.35.11.21.22.19.57.3.51.25.19,4.51,1.6,1.43-.24,1.38-.78.41-.48.33-.54.4-.93.21-.68,2.53-13.59-1-10.66.7-10.56-.35-2.5-.85-2.58-.29-.54-.65-.97-.25-.51-.09-.25.02-.35.14-.28.65-.25.38.02.41.08,1.46.4.57-.29.18-.25,1.5-2.47.13-.25.6-1.61,2.25-6.22.44-3.91.02-.36,1.66-1.81,8.08-8.44.44-.43,5.81-4.77.74-.55.65-.21.3.16,1.08-.24.74-1.44.29-.6-.05-.32-.44-2.49-1.46-3.93-3.91-6.76-1.74-2.04-.14-.25-.08-.63.7-2.39.35-.71.36-.51.22-.22.49-.36,2.95-1.73,3.02-1.03,2.96-.03.4.13.4-.08.9-.41.44-.38.17-.25.02-.35-.48-2.69-1.17-2.41-.14-.25-.51-.33-.82-.17-1.33-.09-.41-.1-.51-.41-.19-.52-3.07-12.29-2.99-5.65-.79-3.23-.79-3.28.11-.33-.14-.3-2.41-2.23-.6.28-.17.22-.21.73-.05.33-.05,1.43-.14,6.16.05.67.14.25.3.14.87.14.3.16.4.44.44.74.14.25.33.87.24,5.29-.08.74-1.49,7.57-.14.3-.25.17-.43.02-2.49-.03-7.25,1.96-6.12,5.59-2.58,3.8-3.09,5.59-.41.89-.17.73-.19,1.16-.02.35.08,1,.22.89-.1.35-.74,1.92-.14.33-.29.57-4.23,6.78-.51.81-2.74,4.24-.97,1.3-2.31,1.93-.47.38-.57.29-1.03.24-5.59.47-.44-.08-.55-.28-.15-.11-.11-.13-.06-.19-1.63-.63-.19-.59-.14-.24-.25-.19-.35-.16-.41-.05-.4.03-.3.11-.27.17-3.39,3.56-.18.25-.11.35.08.33.11.24.19.25.25.16.41.05.35-.08-2.22,1.93-11.56,4.77-4.63,2.36-9.14,5.94-.71.55-2.42,1.9-.44.41-.19.25-.14.78.1.33-.03.65-.11.38-1.73,3.34-.21.36-.59.32-2.52,4.1-.57.74-.6.76-1.42,1.6-.46.41-.25.13-.35.08-.73.09-1.74.38-.65.24-.54.33-.46.41-.19.25-4.51,6.64-.32.13-3.72,1.62-.57.28-1.09.7-.22.17-.37.49-3.29,5.5-4.24,9.65-.11.35.21.22.67.27.87.14,2-.14,1-.27.91-.44.54-.32,2.68-2.11,2.07-1.71.35-.11.38.08.3.16.21.22.22.54.24,1.9-.63,11.39-.11.35-.32.16-2.11.84-.19.04h-.39s-.46-.4-.46-.4l-.68-.95-.17-.6.06-.35-.05-.32-.19-.27-4.64-3.94-1.31-.9-.97-.47-1.14-.33-1.41-.14-.78.03-.7.14-.62.29-.22.16-.46.41-.38.55-.11.3-.21,1.11-.84,2.22-.22.21-.27.16-.32.13-.4.02-1.24-.3Z" fill="currentColor"/>
        <path d="M1177.02,1269.65l-.6-.32-.21-.54.13-.38.14-.25,1.38-1.28.25-.16,3.72-1.28,1.67-.35.47-.02.3.08.08.28-2.65,2.07-2.31,1.69-1.39.71-.98-.27Z" fill="currentColor"/>
        <path d="M1229.51,1352.94l-.08-.29.76-3.48.19-.25,2.82-.84.41.09.19.54.48,1.44.08.29-.1.3-.24.24-3.47,1.95-.68.14-.36-.13Z" fill="currentColor"/>
        <path d="M1393.54,1396.26l-.27-.19-.19-.21-.14-.3.02-.7.29-.6.19-.25.82-.97.19-.21.3-.13.25.19.29.86.09.32-.02.67-.25.65-.32.51-.49.38-.35.08-.41-.1Z" fill="currentColor"/>
        <path d="M1327.61,1426.81l-1.63-.51-.25-.19-4.07-5.59.03-.71.11-.33.49-.33.81-.02.25.17.25.19.44.44,3.98,4.05.19.22.1.28.35,1.81-.02.35-.22.22-.4.03-.41-.09Z" fill="currentColor"/>
        <path d="M1342.61,1432.24l-.73-.21-.21-.22-.05-.32.19-.25,1.24-.95.41.09.25.19.4.43.74.95.24.54-.27.17-2.22-.43Z" fill="currentColor"/>
        <path d="M1428.75,1464.36l3.41.67.74.24,1.35.54.48.4,2.57,2.9.05,2.98-3.61,2.9-.3.13-.35.08-.48-.05-2.52-.82-.63-.3-1.03-.78-1.57-.76-.89-.13-5.12-.36-1.76-.11-1.33-.06-.79.08-.35.08-7.4,2.98-.81.54-.19.22-.21.63.05.63.08.36.52.68.21.21.24.54.1.63-.02.35-.28.6-.51.38-1.08.67-5.43,2.41-1.25.52-.65.13-.43-.02-.32-.14-2.58-2.17-.62-.65-1.13-1.33-.51-.38-.32-.14-.43-.09-6.65-.9-.48-.05-1.22.06-.62.24-.22.17-.16.3-.1.33.24.54-.17,1.03-.27.21-.54.3-.66.24-.74.06-6.38-.52-7.52.95-8.84.51-1.85-.25-1.6-2.11-.44-.74-3.66-2.61-1.8-.95-2.23-1.36-.25-.19-.14-.25-.06-1.54.06-.38,2.14-5.78.14-.28.24-.22.27-.16.32-.16.97-.29,17.38-3.94,2.11-.46,2.82-.14.81.02.43.08.86.03,1.88-.3,3.07-.74,6.08-2.14,4.96-1.9.35-.08.78-.08.43.02,10.54.9,3.36,2.63-.11,4.45.09.32.57.65.36.13,5.26.54,5.21,2.23.3.51.27.19.32.14.46.1,1.22-.06,1.05-.24.3-.13.55-.33.73-.62.54-.73.52-.81.94-1.86,2.92.29Z" fill="currentColor"/>
    </g>
    <g class="aus--tas">
        <path d="M1960.47,1677.92l-.08-.35.76-1.95.16-.27.35-.11.46-.06.25.19-.02.35-.49,1.63-.11.32-.21.24-.32.14-.51.08-.25-.21Z" fill="currentColor"/>
        <path d="M1964.46,1678.78l-.17.25-.44.03-.25-.05-1.93-.67.06-.35.38-.44.65-.67,1.01-.79.44.05.67.29.54.4.14.19.05.36-.11.3-.77.97-.23.02-.02.11Z" fill="currentColor"/>
        <path d="M1768.14,1715.25l-1.33-.73-.24-.21-.13-.28-.6-2.76.79-.32.32-.19.08-.3-.13-3.61-.03-.32-.25-.55-.19-.24-.76-.63-1.08-.67-.52-.38-.24-.21-.19-.25-.02-.35.17-2.93.93-9.03.13-.32.84-.51,1.63-.67.97-.46.52-.36.44-.41.4-.49.13-.3.16-.7-.1-.68-.48-1.16-.21-.59-.16-.63.27-.22.32-.14,1.92-.43.51.06.33.14,4.36,2.15.3.16,2.23,2.57.21.6.57,7.93,1.27,6.3.17.25-.03.38-.51,2.72-.13.3-1.59,2.71-.22.22-5.43,2.82-2.92,1.27-2.06,1.5-.44-.09Z" fill="currentColor"/>
        <path d="M2007.72,1723.06l-.81-.25-2.09-.76-.87-.48-.51-.4-.19-.27-1.33-3.96-.05-.35.22-.63.16-.27-.05-.4-6.54-9.12-4.88-3.41-.46-.05-.3-.16-1.77-1-.74-.63-.14-.27.21-.24,1.25-1.39,5.59-5.48,2.5-.95,2.39-.68.19.62.41.47,5.2,5.37,5.48,5.16.51.38.55.4.3.16.76.25,2.14.63.41.08,1.82.17.49,1.65,2.69,11.26-.17,1.36-.09.35-.37.48-.32.16-.66.27-.41.11-6.97.97-2.77,1-.78-.16Z" fill="currentColor"/>
        <path d="M2020.52,1734.19l-.21-.7-.25-.55-.19-.24-.57-.32-1.49-.05-9.25.73-.87.09-.62.32-.78.22-.41-.03-.82-.17-3.98-1.39-.21-.24-.1-.32.11-1.09.17-.67.41-.51.25-.19,2.96-1.62.35-.11.87-.14.89-.08,1.01.02.92.08.87.13,2.04.82.41.09.46-.05.37-.14,4.69-2.01,1.19-.6.98-.48.35-.08.46.05.32.16.51.43,7.02,6.45.16.24-.11.35-.16.29-.36.11-.3-.16-.25-.19-2.79,1.19-.36.16-2.63,1.55-1.09.73.03-2.08Z" fill="currentColor"/>
        <path d="M1822.79,1734.44l-.71-.27-.29-.16-.43-.49-.86-1.24,2.46-2.88.27-.19.41-.06,3.56.49.35.13.41.87.08.29-.06.35-.87,2.34-.38.11-3.13.82-.81-.11Z" fill="currentColor"/>
        <path d="M1815.42,1741.52l-.25-.21-.89-1.17-.14-.36-.17-3.48,3.28-5.2.27-.19.35.14.1.3.16,2.83.02,1.49-.11.73-1.06,3.75-.6,1.16-.22.27-.37.06-.35-.13Z" fill="currentColor"/>
        <path d="M2010.92,1741.29l-2.96-1.43-.21-.21-1.17-1.38.11-.27.21-.24,2.28-1.43.27-.11,4.01-.05.65,1.36-1.12,3.44-.11.32-.3.14-.93.08-.71-.24Z" fill="currentColor"/>
        <path d="M1823.33,1749.06l-.35-.17-.19-.16-.14-.28-.25-2.44.08-.35,3.03-2.82.25-.19.37.13,3.58,2.8,1.3,1.65-5.12,1.54-2.14.4-.41-.09Z" fill="currentColor"/>
        <path d="M1936.33,1914.9l-1.69.67-.67-1.41-.14-.28-.21-.24-.7-.28-.49-.05-.97.06-.87.14-4.36-.49-4.72-2.47-.46-.44-4.62-.54-12.45-.46-.49-.06-.63-.32-.41-.49-.08-.32-.08-.7-.16-.29-.3-.24-.32-.16-.97-.06-.49.03-6.49,1.44-.33.11-3.94-1.05-5.97-6.54-.21-.24.06-.35.29-.19,3.18-1.36,5.69.54.48.05.38.13.32.21,2.54,1.01,3.83.9.54-.06.17-.27.02-.32-.02-3.25-.21-.24-3.59-2.44-.49.03-.49.41-.73,1.52-.24.62-.46.46-.33.19-.43.02-14.13-1.54-.86-.17-.62-.33-.41-.48-4.24-6.19-1.82-2.91-7.51-8.79-.71-.65-.32-.16-.36-.17-.36-.08-.54-.02-.85.13-1.16.32-.48-.02-.37-.13-.25-.21-.21-.24-2.12-3.04-2.01-3.15-.14-.29-1.38-3.91-2.38-6.46-.16-.28-.19-.27-2.25-1.65-2.42-.4-.41-.08-.25-.21-.1-.32-1.33-8.54-1.92-7.78-.02-.74.44-2.85,1.06-1.01,1.27,1.79.46.49,3.93,2.33,3.14,1.66,2.47,1.28.57.33.38.52.1.32.06.71-.02.38.19,2.12.21,1,.54,1.88.17.6.14.27.4.49.33-.16,4.34-9.41.13-.32-.1-.32-2.52-1.17-.36-.13-.48-.05-.33.14-.13.3-1.52-.11-10.15-8.28-1.25-1.84.27-1.01.1-.73.05-.79-.09-1.06-.13-.66-.57-1.82-.43-.84-3.28-4.96-.24-.25-7.27-5.1-5.7-7.6-5.5-9.63-4.39-8.77-2.85-4.81-2.68-4.45-.13-.27.08-.4.11-.27.19-.3.24-.62.16-.67-.08-.32-1.39-5.5-.22-.63-.13-.27-.6-1.09-.93-.86-1.11-5.59.11-.32,1.51-1.47.32-.14,1.31-.09.68-.25.49-.41.17-.27.13-.35.24-1.04.22-1.82-.41-3.79,3.47-1.77,12.48,1.09.41.08.3.17,2.43,1.57,2.07,1.52.9.51,1.11.4.98.08,8.56-1.16,2.93,2.04,1.06.4,11.07,2.69,12.1,5.42,6.89,3.14,16.95,6.11,1.12.35.46.1,1.82.16,8.02.59,1.57.08.93-.06,1.68-.27.84-.17,1.84-.55,1.05-.4,3.21,1.63,1.22.65-.3-1.77.02-.35.22-.22,4.17-3.17.27-.14,3.41-1.03,1.03.03,1.35.17.73.25.3.16.3.21.21.21.57,1.14.52,1.49-.06.4-.52.33-.13.32.14.29.32.16.71.25,2.33.24,4.67.08.27-.19-.14-.27-1.11-1.12-.51-.4-.3-.16-.36-.13-.82-.17-1.03-.02-1.41-.14-.35-.13-.62-.33-.3-.24-.16-.24-.17-.63-.05-1.87.06-.35.22-.24,1.96-1.25.63-.3.36-.14,7.92-2.71.46-.03,3.71.92,1.12.33,1.08.41.83.17.93.1,1.39-.1,1.09-.33,8.95-1.47,3.22,2.36,2.82-.93,1.2-.65.27-.21.68-.73,1.01-1.16,1.38-1.66,1.66-2.28.27-.59.65-1.09.25-.19.95-.46.41-.11,3.22-.66.37.13.81.98.14.24.41.48.25.21,5.09,1.5.87.13,1.35-.11.43-.08,1.46-.44.98-.46.63-.35.68-.62.79-.97.52-.78.32-.59.33-.9.22-.67.22-1.36.27-.59.52-.38.27-.19.3-.11.41-.08,1.4.13.98.21,3.23,1.2,7.95,4.47.25.21,2.85,2.87,1.94,3.21.4.48.51.74.32.59-.06.71-1.46,4.21-.68,1.84-.38.89-.43.86-.59,1.14-.16.62-.02.79.14,1.01.25,1.01.16.27.46.44,1.55,1.17.62.71.1.32-.19,3.71-1.68,5.08-.7,1.39-.11.32-.11.7.43,3.83.05.36.25.62.36.52.66.7.48.79.19.62.05.74-.05.36-1.24,6.43-.97,2.66-.49.81-.16,1.06.09.71,1.85,12.21.51,1.25.52.74.63.71.78.59.52.4.48.43.21.24.16.29.05,5.62-.11.71-.16.27-.81.97-.85.93-.81.59-.36.11-.48-.08-1.57-1.19-.25-1.36,1.06-.78.49-.47.16-.3.11-.67.4-2.98-3.96-7.97-.16-.3-2.01-2.76-.21-.24-.43-.08-.41.08-.22.22-5.54,9.07-.16.27-.17.67-4.05,22.7-.21.22-2.31,1.74-.33.16-.68,3.2.65,2.44.03,1.12-.05,2.34-1.39,1.17-.65.35-.85.49-.6.43-.43.43-.33.51-2.12,5.29-.02.4.16.32.48.4.32.16.43.08,1.49.13.92-.09.27-.21-.16-.27-.74-.24-.32-.16-.27-.24-.41-.52-.05-.3.11-.32.22-.24.81-.54.43-.08.48.1.32.11,2.8,1.39.32.16.27.21,1.04,1.77.1.27.36,3.64-.11.3-.27.21-1.55.41-.33.19-.22.19-.32.55-.11.3-.33,3.83.09.32.16.27,1.41,2.17,1.46,2.52-.43,3.04-.11.32-.16.15h-.54s-.43-.07-.43-.07l-.43-.13-.65-.28-3.02-1.98-.25-.21-.21-.27-.11-.32-.05-.35-3.74,2.11-2.14,2.33-5.27-4.75-3.74-5.59-.79-2.49.06-.35.16-.27,2.81-3.6.22-.24.27-.19.81-.19,1.01.05.38.16.52.36.41.85.19.63-.22.63-.49.46-.38.46-.11.32.14.27,2.17,1.55.32.21.9.47.36.13.86.16,1.01-.03,2.65-.4.43-.11,1.41-.89.27-.24.16-.24-4.45-5.12-12.48-5.78-.68-.24-.48-.1-.49.03-1.17.3-2.75,1.14-.43.46-.13.29-.06.38,1.32,3.34.52.79.62.71.62,1.11.1.3-.06.36-1.05,1.58-.65.35-.71.25-1.93.54-2.26.62-.43-.08-.36-.16-.22-.19-.92-1.66-.1-.32.11-.35.22-.24.33-.14.43-.08.36.13.27.24-1.35-6-3.22-1.62-1.95-.84,1.77,3.31-.44,2.65-.84,3.28-1.9,1.11-1.4,1.85-1.5,4.17-.13.7-.02.4.05.35.1.32,1.08,1.93.19.63.05.35-.19,1.06-.52,1.58-.18.32-.17.24-.27.22-.98.46-.38.11-.43.06-1.46-.13-.74-.25-4.18-2.03-3.25-2.55-.52-.44-.41-.44-.1-.3-.05-.36.16-1.47-.29-.95-.16-.28-.62-.71-.27-.24-.48.03-.27.19-.46.46-.56.82-.11.27-.27,1.41-.03.78.03.74.21.63.14.27,1.05.79.58.36.68.38.95.47,1.9.93,1.79,1.39.21.24.16.28.1.32-.17.27-2.42,3.44-2.9,3.31-.22.24-2.74,5.89-.66,3.86-.13.32-.44.46-.79.48-3.05,1.06Z" fill="currentColor"/>
        <path d="M2015.31,1840.43l-.32-.16-.57-1.14-.09-.32.27-.19.37-.11.48-.03,2.53.32,1.38.63.21.21.89,1.68.14.29-.16.27-.27.19-.43.08-4.42-1.71Z" fill="currentColor"/>
        <path d="M2001.72,1863.29l.06-4.5.03-1.17.11-.35.16-.24.27-.19,2.99-1.69.33-.16,2.28.14.48.03.27.21,2.28,3.42.05.35-.16.32-.27.19-.38.08-.48.03-3.03-.17-3.2,3.77-1.57,1.19-.24-1.25Z" fill="currentColor"/>
        <path d="M1960.77,1887.99l.13-.67,1.88-2.74.22-.24,1.33-1.38.32-.16,1.98,2.49.21.29,1.85,5.07.09.32.02,1.44-.17.67-3.88.54-3.97-5.62Z" fill="currentColor"/>
        <path d="M1957.76,1906.65l-3.63.57-3-4.55,3.83-3.85,5.53-5.04.27-.24.48.05.43.43,3.12,5.92.14.67-.13.7-2.31,5.84-.18.27-.49.38-.44.08-3.63-1.24Z" fill="currentColor"/>
    </g>
    <g class="aus--act">
        <path d="M2060.96,1474.88l.24-.19,2.55-3.02.22-.6.3-1.39-.16-5.46-.74-4.26-.32-1.25-.06-.73.02-.35.06-.35,3.01-9.8.37-.46,1.92-2.33.41-.46.49-.38.28-.14,3.25-1.17.73-.17.48.02,2.5.35,1.51.4.43.02.38-.11.3-.14,1.08-.62.79-.6.4-.41-.17-.29-.29-.16-3.31-1.5-.79-.14-.43.03-.43-.05-.38-.09-3.22-1.31-2.74-2.45-.41-.43-.08-.28-.03-.38.03-.4-6.42-2.07-12.15,7.1-1.87,1.17-.95.78-.4.46-.32.46-.16.3-.09.3-1.73,8.33-.06,1.16-.09,7.92,1.41,3.26.17.24,7.26,8.79.4.47.24.21.82.49.33.13,5.09,1.73.35-.11Z" fill="currentColor"/>
    </g>
    <g class="aus--qld">
        <path d="M1666.94,7.87l-.19-.19-2.46-2.74-.17-.24-.03-.32.7-1.28,2-2.68.17-.22.24-.19.32-.02.32.08.22.17,1.39,1.33.41.41.33.43.02.35-.02.4-.19,2.42-.13.25-.17.24-1.2,1.47-.21.24-.29.09-.71.05-.35-.06Z" fill="currentColor"/>
        <path d="M1671.2,10.77l-.38-.4-.33-.44-.68-1.22,1.25-2.58.17-.22.65-.51.32-.06,2.85-.55.32.05,1.71.89.78,1.16.54,1.11-.08.65-2.64,3.12-.38.41-.32.05-3.77-1.44Z" fill="currentColor"/>
        <path d="M1676.46,28.27l-.46-.33-.19-.19-.14-.24,1.47-1.14.36.44.22.52.06.3-.06.35-.16.22-.25.14-.35.03-.51-.11Z" fill="currentColor"/>
        <path d="M1672.75,27.8l.1.29-.68,1.43-1.73.54-.3-.13-.16-.24-.06-.35.03-.35.51-.74.16-.19,1.31-1.03.35.09.07.13.4.55Z" fill="currentColor"/>
        <path d="M1677.6,31.64l-.02.4-.27.52-.6.51-.62.36-1.24.33-.35.02-.4-.05-.22-.13-.19-.21-.44-.71-.27-.86-.02-.35.05-.35.22-.57.18-.22.28-.14.27-.06.36-.03,1.01-.06.76-.02.3.09.51.25.36.44.21.41.11.41Z" fill="currentColor"/>
        <path d="M1667.6,40.12l-1.57-1.73-.3-.48-.13-.63-.03-2.55.06-.35.13-.25.21-.24.24-.17,2.82-1.38,2.34-.48,2.79,4.18-.13,2.2-.52-.14-2.14.57-.29.14-.21.17-.54.63-.46.63-.43.73-1.85-.87Z" fill="currentColor"/>
        <path d="M1602.03,1078.72l-.02-11.37-.03-31.71.05-91.88-.02-34.45-76.08-.02-55.12.02-22.79-.02h-17.08s-.03-1.9-.03-1.9l.05-57.02-.05-32.31.02-22.77.02-11.42.02-20.92-.02-9.49-.03-11.4.03-19.02.02-5.69-.02-19.01-.03-11.44.03-51.28.02-24.71-.05-9.52.03-26.59-.03-155.86.02-5.69,3.79-39.06,2.98,2.28,1.63,1.2,2.44,1.66.52.27,5.21,1.87,8.24,2.07,1.81.36,1.14.14,1.55.03,4.31-.27,2.44-.27.81.05.48.3.46.35,1.03.97.71.52,8.24,3.23.6.22,1.09.16,2.23.25,1.55.02,2.68.22.73.13.56.22.79.44.51.35.54.65,6.02,8.76.08,2.47.03.71.08.67.13.63.22.92.68,1.95,2.2,4.45.63.93.38.43,1.43,1.38.94.76,1.32.67,2.66.71.73.13,1.55.16,1.44-.11.78.02.41.06.63.19.55.27,5.21,3.25.24.17.43.38,2.55,2.26.43.41,1.06,1.33.62.54.81.4.63.24,1.01.3,1.57.44,3.07.81,1.94.4,1.93.25,3.91,2.22,3.63,2.49.63.93.73.9.19.21.48.38.56.27,1.54.44,1.87.3.82.05,3.79.02,13.81-2.25,1.27-.36,5.61-1.85,2.23-.93,4.53-2.3.73-.48.65-.51,1.33-1.06,5.53-4.02,1.32-.71.54-.21.63-.16,1.06-.06.63-.24.22-.19,1.39-2.23,1.01-1.87.48-1.06,3.22-11.89.58-3.09.19-1.44-.03-.71-.06-.32-.38-1.19-.03-.35.03-.4.09-.35.44-.71.89-1.12,4.48-5.56,7.11-8.84.35-.44.71-.98,1-1.79.27-.54,2.98-6.84.98-2.26.54-1.54.22-1,.05-.35-.02-.36-.06-.32-.14-.24,1.09-4.51.65-1.46,1.33-4.31,3.6-8.5.68-1.33.09-.27.05-.35-.08-.67-1.47-8.87,1.27-9.34.51-3.58.24-1.38,1.41-6.78.63-1.81,5.7-12.88,3.52-7.24.14-.27,1.71-6.32-.03-1.09-.24-.9-.27-.87-1.36-2.72-.63-1.16-.38-.41-.29-.52-.33-.79-.49-1.47-1.57-5.29-.14-.6-2.49-15.44-.08-.71.05-1.12.11-.7.74-2.53.52-1.43,1.19-2.87,1.05-2.23.22-.51.19-.6.17-1.05.25-3.07.06-2.25-.02-1.06-.25-1.25-.29-.92-.52-1.39-.36-.74-1.33-1.52-1.35-1-.62-.6-.87-1.06-1.27-1.85-.25-.52-.21-.55-.24-.95-.08-.62-.03-1.09.02-1.09.17-2.3.29-1.77.33-1.69,1.01-4.97.41-1.69.6-2.14.29-.97,1.24-3.6.71-1.68.27-.54.35-.45,2.69-4.06,3.88-7.16.3-.93.14-.68.05-.78-.03-.36-.22-.9-.22-.55-.14-.24-.19-.24-1.28-.68-.19-.21-.98-1.68-.11-.29-2.53-8.87-.09-.7.16-.67.41-1.14.59-1.06.3-.49,1.11-1.27.24-.14.19.24.27.17.32.05.32-.06,2.9-2.07.63-.59.51-.6,1.41-1.76.68-.93.4-.76.22-.57,1.06-3.41.17-.62.17-1,.19-.62,1.13.43.12-.11.2-.02.24.02,1.07.42.16.08.14.1.25.25.09.14.4.95,1.29,1.69.16.97.11,1.01-.03,1.44-.13.73-.03.74.06.32,2.19,3.25.35.44.33-2.01.02-.38-.08-.67-3.18-8.74-2.54-1.81-4.02-5.84-2.34-3.26-.57-1.11,1.43-.87.46-.32.09-.3-.46-.35-.93-.32-3.48-.48-.32.06-.06.35-.33,2.79-.08.73.08.7.14.24.29.14.6-.17.73,1.12-3.03.93-.6.17-1.41-.62-.22-.16-.16-.24-.05-.36.27-.87.72-1.28.87-1.53,2.19-4.62.49-1.11,1.11-2.85,3.69-4.86,1.3-1.88-.9-1.98,2.38-6.84.43-.82.3-.46.65-.93,1.14-1.57.38-.46,1.05-.92.98-.57.41.27h.24s.13.11.13.11l-.03.21-.48.48-.13.64.03.35,1.47,5.38,5.72-.97.32-.11.17-.17.17-.27.1-.3.11-.7.02-.35-.11-.27-2.66-2.93-.63-.14-.68.13-.4-.67-.16-.06-.11-.12-.07-.16-.06-.21v-.38s-.02-1.69-.02-1.69l.63-4.2.59-2.26.1-.3,4.91-14.57,1.49-3.69,1.05-2.2,1.22-3.93.14-.62.29-1.73,1.7-10.69-.11-3.25-.19-2.03-.08-.65-.13-.63-.11-.35-.13-.59-.41-2.19-.05-.7.24-.62.3-.44.21-.19,1.33-.98.49-.32.29-.11.36-.06.35.02.35.06.59.25.35.06,4.66-1.08,2-.52.41-.36,2.85-3.79.33-.44.49-1.11.09-.3.21-1.03.06-.73.24-.97.27-.52.89-1.47.29-.09,4.1-.13,2.15.85,2.98,1.3.22.21.14.24.03.35-1.16,1.95-.54.29-.59.17-.24.14-2.8,2.63-.37.4-.13.27-.06.35-.57,4.66.19.21.32-.06.29-.11.28-.17.37-.33.48-.71.9-1.85.22-.57.3-.51.49-.36.24-.09.63-.13.74.06.32.09.54.3.41.32,5.83,4.66.19.17.9,1.05.33.43,2.15,4.74.32.82.74,4.53,3.23,11.09.38,1.14.03.35-.22.57-1.43,6.34.11.27.87,6.24.63,5.29-.06,1.5-.33,2.04-.28,2.15.16.98.11.27.29.48.38.44.7.54,4.59,3.48.46.33.55.25.66.09.79.03.71-.05.97-.19,1.22-.73.21-.17.73-.44.84-.32,2.23.55.27.17,3.72,4.05-2.17,3.33-.79,1.22-2.57,4.17-1.16,4.83-.4,3.83-.11,1.5.16.98.16.24.22.16,2.46.36.4-.02.78-.36.6-.16.35-.03.71.14,1.28.71.73.46.43.33.16.24.1.27,1.11.21.35.08.24.17,1.3,1.44.09.32.21,1.76-.02.38-.25.54-.19.62-.03.73.03.4.19.93.11.28.27.48,1.71,1.85.43.36.49.29.4.02,1.05-.11.4.02.32.08,2.57,1.43.24.16.79,1.12.1.27-1.12,3.34-.95,1.82-.33.46-.48.71-.29.54-.16.62-.29,1.35-.11.7-.29,2.01-.03.73.03.35.21.95,2.2.74.35.02,3.8-.44,1.65-.21.56,1.14-.24,6.98-.25,2.44-.14,1.36-.03.11-.18.22-.09.32.03,1.08,1.06,9.72.27,2,.25,1.65.29.86.3.52.19.21.43.4.51.25.6.22.22.16,1.19,2.26.22.55.05.7-.54,4.88-.49,2.01-1.41,4.58-1.33,6.21.1.67.79,2.28,3.18,7.63.84,1.12.95,1.01.83.76.89.67.74.49.4.44.11.24.11.27.13.63.28,2,.52,3.96.03.35-.08,1.08-.22.62-.06.32.06.74.78,2.6,1.25,4.13.36.82,1.87,3.93.52,1.03.89,1.09,1.04.97,2.15,1.44.74.41.63.22,1.09.16,2.12.19,1.65.09,2.14-.16.65-.14.29-.14,3.86-2.39.84-.76,3.07-2.88,10.74-4.48,2.69-1.19,2.3-1.25.65-.52.48-.73.55-1.03.4-.81.3-.89.21-1.36.18-.22,1.87.41.29.13.19.19,2.3,3.2.97,1.38.19.29.06.27-.13.67-.59,1.46-.05.32-.02,2.76,2.58,7.14.27.51,3.29,3.8.24.17,5.97,2.23,2.38.86.33.1.66.09.81.02,1.3-.27.41.02.32.08.27.13.24.17.32.48,1.46,3.39-.02.35.35,2.04.22.55.54.63.24.16.52.25,1.74.68,4.58,1.97,7.44,3.38,6.24,4.74.03,2.96-.76.79-1.05,1.35-.76,1.22-.93,1.5-.68,1.27-.44,1.16-.11,1.05.08,1.44.17,1.38,2.23,3.64.49,2.71.22,1.52-2.33,6.57,1.67,2.45,1.55,3.72,3.01,9.79.21.9.02,1.14-.25,3.23-.24,3.63.06,1.09.14.67.27.48.19.19.52.3.29.11.71.49.43.41.63.95,2.07,3.8.4.74.51,1.85.02.7-.63,11.01-.59.6-1.09,1.35-.33.44-.3.51-.22.59-.27,5.37-.02.4.1,1.01.11.29.43.4.62.17,2.31,1.43,2.57,3.36,6.1,7.84,2.96,2.19,3.42,4.53,2.52,3.79.11.27,1.81,1.46,1.74-1.46.25-.14,4.64-.9.4.05.33.08.29.13.68.52.35.44.13.27-.06.35-.21.19-.29.11-2.26,3.71-.86,1.5-1,2.28-.05.27.02,1.14.24.55.19.19,3.9,6.43,4.45,10.03,3.06,10.74,1.2,7.46-.27.92-.9,4.99.84,5.84-.36,3.6-.05.35-.49,1.12-.13.27-.38.46-.21.14-.38.43-.3.46-1.33,2.36-1.93,4.61-.1.32-.05.73.03,1.49.46,3.53.7,1.62.19.28,10.66,12.56.93.76,1.65.35,2.06.19,1.79.67.49.33.21.27.14.63-.11,1.09-.3,2.88-.25,1.41-.18.59-1.03,1.38-.25.54-.65,1.39-.46,1.57-.19,1.05-.65,4.99.02,1.11.24.93.16.24.35.48,2.98,3.79.24.21,2.39,2.04,2.5,1.57,1.06,2.17.29.44.24.19,6.49,3.93,3.95,1.81,1.14.49,1.57.52,1.11.11.3-.11,1.09-.57.29-.08.74-.09.72.09.29.16.4.35,2.65,2.99,3.33,3.15.54.24.65.17,3.41.02,6.76,2.11,2.6,2.71,1.24.71,6.49,1.31,9.58-.55.63-.19.25-.14.59-1.01.02-.4-.05-.35-.11-.35-.13-.21-.48-.71-.7-.87-1.52-1.35-.11-.27.05-.36.21-.19.41.02.33.11.93,1.08,1.66,2.33.29.48,5.29,9.07.13.24.54,2.19.59,2.6.66,3.14.41,2.9,1.2,2.36.29.52,2.66,2.58.21.19,2.66.54.7.13,2.33-.16-.11-1.03-.31-.46-.16-.63-.38-3.03.03-1.63.76-.73,2.69.25.33.09.25.16,1.31,1.14.16.24.08.32-.05.4-.05,3.28.03,1.09.19.6.41.82.16.24.41.35,2.27,1.87,1.44.92.62.21,1,.24.71.09,1.25.05.33-.08,5.19-.33,7.02,1.95,2.84,2.5,2.06,2.36-.05.35-.33.08-.79.03-.71.14-.49.27.03.36.57,1.28,3.37,3.91,3.88,3.2.54.32.3.1,2.58-1.12.25-.14.13-.28.32-2.69-.08-.35-.11-.24-.38-.43-.82-.41-.7-.51-.13-.27-.03-.36.03-.74.3-.54.46-.35.38-.03.33.08,3.49,1.52,2.39,1.88,4.18,3.52,2.03,1.9,4.58,1.12.17-.27.25-.13.41-.03.29.08.25.16.21.24,1.27,2.28,1.84,5.76-.13.3.08.32.33.87.98,1.84.17.24.62.59.28.1.81.07.37-.05.38.05.21.16,1.6,4.36-.13.22-1.38-.13-1.74-.74-1.3-.76-1.44-1.88-2.3-1.03-2.81,1.08-4.21,4.89,1.39,3.58,1.96,4.97.13.32.16.19,6.76,6.59,4.09,2.68,6.1,2.03,7.54,5.51,3.09,3.69-.56,4.24,2,7.08,2.82,2.28.29,1.2,1.95,5.59,3.25,5.34,3.28,2.91-.08,2.68-.63,7.76-.06.35.03.35,2.28,7.67,2.9,9.41,3.94,8.9,3.61,4.83,2.41,1.71.13.28.29,1.2.05.71-.02,2.96-.11.7-.27.54-1.61,1.27-.35.46-.06.35.25.16.38-.03.28-.1,1.9-1,.25-.14,1.22-.79,2.77-2.07.22-.19.17-.24.44-1.96.22-.19.27-.14.36.05.25.16.41.41,7.75,8.38.16.27.39.76.3.9-.03.7.03.35,2.87,2.79.9.73-.03-.36-.08-.3-1.66-5.32-1.47-4.01-1.88-3.69-1.82-3.28-.06-.32-.02-2.22.16-.63,2.12-5.1.54-1.08.7-.87.87-.71.3-.16,1.82-.52,1.09-.08,1.36.74.21.16,4.24,6.16,2,3.44.03.35-.09.32-.62.6.27.9.31.48.57.65.21.16,1.41.7.59.25.33.08,4.5,1.5,3.87,1.93.54.29.73.87.16.25.57.63,3.15,1.79,4.44,2.19,2.01.52-3.17-6.91-.11-.27-.08-.32-.19-3.36.06-.35.32-.89.87-2.15.48-.38.33-.03,3.44.6.33.08.24.16.21.21,3.69,5.35-.9,3.41-.32-.06-.4-.08-.13.08-.13.08-.17.22-.1.32.19.63.71,1.81,3.34,4.29,4.39,5.88-.84,2.82-.76,4.31-1.12,6.79-.95,7.89-.06.7.16.63.11.27,3.07,5.45-.41,3.98-.43,1.58-.02,1.88.03.35.32.86,3.64,6.57,3.8,2.61.82-.36.43.02,3.26.41.63.22.21.19.78,1.34.61,1.97,3.61,2.38.54.71.81,1.58.36.82.44,2.23.02,1.06.08.32.29.51.21.21.51.35,3.25,1.76,1.09.17,1.13-.13.38.05,2.47,1.73,4.48,5.16,1.55,1.69,1.76,1.14.27-.16.3-.11.38-.03.43.02.73.13.46.24,2.61,1.65.16.24-.08.32-.14.27-.25.14-.4.43-.22.59.06.7.24.55.22.21.54.32.6.24.38-.03.22-.19,2.57-2.41.02-2.42-.03-.35.03-.24.02-.11.17-.24,1.09-.98.33.08,2.34.62,5.94,6.27,5.29,4.69,1.44.76,1.35,1.12.43.43.41.79,2.04,5.46.11.67.32,1.25.65,2.12.26.59.36.79.84,1.57,1.58,2.83,4.31,5.76.43.4,3.64,3.01.48.32,3.96,2.28,1.96.97,1.58.52.68.17,1.89.21.65.21,1.28.79,1.36,1.19.38.4,1.09,1.38.97,1.43.3.55.36,1.2.13,1.06-.06,1.09-.1.67-.14,1.05.14,1.81.17.59.49,1.14,1.05,2.15,2,2.96,5.97,8.85.65.27,2.58.78,4.74,1.2.4.05,2.38-.05,2.63.17.35.08.25.16.18.27,1.87,8.11-.57,4.96-.27.16-2.14,1.96-.13.21.36,6.56,1.06,2.99.38.43,1.2,1.3.25.16.4.03.4-.03.38.05.35.08.3.13.27.14.21.21,1.84,3.37.13.27.76,2.76.05.35,1.51.4,2,.52,4.69,2.26.21,1.36-2.74,5.39-2.11,6.35-.57,2.23-1,4.59-.11,1.09.21,1.38.18.62.22.6.33.51.49.35.46,7.29.36,8.52.08.63.3.51.22.19.57.29.68,2.61.73,12.84.08,7.27-3.09.79-.84.43-.7.59-.63.62-.52.71-.9,1.55-.27.51-.08.32,1.35,6.92.25.6.13.22.66.6.82.43,4.82,3.17,4.64,5.18.57,1.03.25.54,1.95,5.57.43,2.34.3,1.3.14.27,3.28,4.51,1.32,1.14.32.51,1.52,3.8-.11,3.59-.79.27-.38,3.75,2.15,5.02.25.55.44.74,1.54,2.55.22.19.85.53-1.78,1.31-1.47,1.05-.98.7-6.05,2.17-.4-.05-1.69.08-5.05.74-.54.32-.49.43-1.49,2.14-1.35,2-.17.19-.54.3-.89.4-8.98-.78-7.3.41-.52.27-.71.16-1.92.17-.4-.05-9.14-1.81-3.39-2.93-.13-.27-.4-.44-.25-.16-.32-.11-.35-.08-.44-.02-.37.08-.62.22-3.15,2.31-.17.24-.74,2.06-.17.28-.41.38-1.35.81-.54.3-.66.19-5.13,1.38-5.59,1.69-.32.11-6.23,2.74-4.91,2.9-.46.38-.17.24-.09.32-.06.35.05.35,2.2,3.79.6.68,2.46,5.16-1.46,8.65-.24.59-.17.24-.51.38-10.19,4.12-.4-.05-2.75-1.03-.52-.27-.4-.49-.81-1.54-.82-1.65-.27-.16-9.38,3.71-.63.38-.87,1.36-.57,1.08-.38.82-.33.93.03.74-2.46,3.74-.56.7-2.47,2.19-2.81.62-.4.03-.36-.09-.25-.16-.44-.4-.35-.48-1.77-3.94-.32-3.5.21-.97.05-.35-.57-3.74-.13-.27-3.91-2.47-10.23-8.27-.27-.16-.3-.13-13.8-5.62-.81-.14-.84.03-.76.13-.36.08-1.3.4-1.71.43-2.83.55-.79.06-8.16-.08-.96-.1-.51-.22-3.14-1.92-.62-.6-.41-.84-.38-.44-2.82-2.22-.89-.41-.74-.14-.81.06-6.79.71-1.08.21-.9.4-.46.38-.73.49-.63.22-4.37,1.09-1.08.24-.84.02-5.67.06-10.52,1.14-4.44-.73-.65-.22-.13-.27-.1-1.11-.33-.48-.52-.33-1.2-.08-1.96.21-1.39.32-2.3.67-.33.14-.78.44-8.17,6.78-3.82,2.34-5.78,4.29-4.96,5.78-.57.68-.41.41-.74.52-.32.14-3.8,1.68-.22.03-19.2-.02-1.57-.03-73.97.03-1.57.02-51.61-.05-22.94.05-18.91-.02-5.97-.02-2.82-.02-44.7.05-56.36-.02-2.5-.03-28.02.03-1.88.02-49.4-.02-14.15-.03-22.34.02-28.64-.02-5.98.05h-.81s-.1-1.66-.1-1.66Z" fill="currentColor"/>
        <path d="M1496.07,382.45l-.14-.24-.1-2.25,1.27-5.99.24-.57,3.28-4.37,3.14-2.42.68-.51.98-.57.7-.03,7.56-.84,1.61-.28,3.12-1.62,10.87,1.66.27.14.22.59.24,1.27.02.32-.09.78-.1.35-.25.11-2.34.98-3.72.76-2.45-1.9-5.23,2.03.82,1.77-2.87,5.07-.17.22-.48.33-6.37,2.34-5.67,1.14-2.6.35-2.11,1.47-.32-.09Z" fill="currentColor"/>
        <path d="M1493.12,386.65l-.02-.35.17-.22,1.98-.78.33-.06.32.14.81.79.1.29-.17.22-2.31,1.65-1.11.05-.1-1.73Z" fill="currentColor"/>
        <path d="M1512.07,404.37l-.48-.78-.4-.81-.52-1.39.14-.3,5.78-5.1,2.01,1.25.7.48.19.21.16.25,1.12,3.47-.33.52-.54.25-2.47.08-2.42-.57-.32-.09-.37.02-.58.19-.51.32-.54.63-.24.54-.06.35-.05.63-.29-.14Z" fill="currentColor"/>
        <path d="M1900.53,480.44l-.28-.13-.57-.41-.32-.55-.35-.78-.16-.6-.11-.67.19-1.01.02-.38-.11-.68-.24-.55-.48-.71-1.71-2.26-.21-.24-.21-.16-.29-.13-1.35-.33-.52-.25-.41-.4-.84-1.11-.63-1-.11-.29.09-.3.32-.08,1.38-.21.73-.05,5.56,2.03,2.55,1.58,4.81,6.13-.06.38-.13.24-1.58,2.9-1.35.68-.54.25-3.11-.92Z" fill="currentColor"/>
        <path d="M1933.26,520.39l-.25-.16-1.41-1.98-.16-.24-.08-.32.14-.3.16-.21.25-.14,4.48-.86.3.11.24.16.03.36-.09.7-.29,2.11-2.68.93-.65-.17Z" fill="currentColor"/>
        <path d="M2027.08,569.75l-.41-.4-.13-.27-.05-2.63.03-.35.09-.32.18-.22.33-.08.44.35,1.08,1.74.08.3-.32,1.57-.13.27-.25.16-.33.08-.62-.21Z" fill="currentColor"/>
        <path d="M2051.65,576.28l-.13-.29-.16-.62.08-.71,1.62-3.47.13-.27.21-.19,2.76-.81.33.08.21.24.25.51.03.35-.05.4-1.35,3.79-.13.27-.93,1.49-.33.51-2.53-1.27Z" fill="currentColor"/>
        <path d="M2055.64,583.85l.14-4.07.24-2.42.38-.9.16-.22.22-.16.29.11.77,1.57,2.47,5.23-1.77,2.41-2,.7-.9-2.23Z" fill="currentColor"/>
        <path d="M2061.18,597.3l-.29-.13-.21-.19-.38-.48-.08-.35.05-.32.13-.27.28-.08,1.76-.49.46.43-.51,1.44-.17.24-.25.16-.33.06-.46-.03Z" fill="currentColor"/>
        <path d="M2129.49,662.61l-.49-.32.25-1.28.43-.38,2.15.76.57.28.21.21.13.29.02.35-.08.3-1.11.63-.3.11-1.77-.95Z" fill="currentColor"/>
        <path d="M2131.94,667.05l.05-.35.89-.33,2.79-.3.19.19-.49,1.16-.27.54-.17.22-.25.19-.25.11-.38.03-2.09-1.46Z" fill="currentColor"/>
        <path d="M2108.66,694.41l-.49-.33-.32-.48-.24-1.73-.06-.7.62-4.07.52-1.62.14-.27.3-.49.35-.46.22-.19.27-.14.33.05.92,4.58.03.35-.48,2.91-.19.62-.11.3-.76,1.3-.17.24-.25.14-.63-.02Z" fill="currentColor"/>
        <path d="M2142.6,701.35l-.21-.21-1.06-2.17.06-.73.74-3.75.24-.67.17-.19.25-.14.33-.08.38.09.62.55,2.87,3.94.11.27.03.35-.13.27-.22.19-2,1.66-.6.44-.97.3-.38.02-.25-.16Z" fill="currentColor"/>
        <path d="M2099.04,706.21l-.29-.43-.03-.35.03-1.95.08-1.95.14-.27.21-.19.52-.3.3-.1.28.13,1.06.97.21.24-.73,2.47-.71.9-.74.92-.33-.09Z" fill="currentColor"/>
        <path d="M2169.21,749.44l-.02-.7.05-.35.17-.24,1.31-1.17.25-.11.33.08.21.21.08.32.17,1.28-.05.35-.22.27-.3.06-1.74.16-.25-.16Z" fill="currentColor"/>
        <path d="M2184.77,783.09l-.3-.17-2.04-1.98-.36-.44-.71-1.78-1.51-2.73-3.85-3.19-1.06-1.71-.52-1.09-.6-1.73-.62-3.85.17-.22,2.26-.46.35.08,3.68,2.15,4.15,2.47,1.11,1.69,3.64,6.35.08.29.74,3.91-.05.35-.13.27-1.28,1.43-.33.06-2.41.35-.41-.05Z" fill="currentColor"/>
        <path d="M2193.34,788.68l-.3-.13-.17-.24-1.79-3.66-.11-.27-.6-2.12-.03-.35.27-.55.27-.14.33-.06.25.16,2.2,4.18.54,1.06.27.93-.1.7-.14.24-.21.19-.35.11-.33-.05Z" fill="currentColor"/>
        <path d="M2290.67,897.85l-.32.11-1.03-.16-.78-.48-.22-.24-2.19-2.71-.21-.55-2.28-6.43-.6-1.84-.08-.67.05-.74,2.79-6.27.27-.51.7-.93.4-.43.87-.78.17-.22,1.06-1.87.25-.51.37-.86.08-.32-.08-4.77-.08-.71-.17-.22-.56-.29,2.36-4.48,2.52-1.58,2.09-1.62,1.3-1.17.95-1.09.44-.78.7-1.36.35-.89.17-.59.36-1.65.08-.7.02-.35-.2-.79-.41-1.02-.33-.51-2.39-3.64-.33-.47-.35-.48-.51-.32-.6-.24.82-1.71.92-1.52.4-.43,1.33-1.12.95-.7.78-.46,1.82-.67.11,1.46.03,1.92-.02,1.47-.05,1.09-.05.74-.05,1.87.03.74.13,1.06.33,1.33.25.86.13.29.93,1.49.43.43.48.32.9.35.35.08.3.13.22.19.13.27.38,1.22.13.67-.27.93-3.72,8.03-2.63,5.45-1.05,2.15-2.95,6-3.3,7.21-2.36,6.86-.17.63-.05,1.12.25.93.13.29.38,1.25.13,1.01-.06,1.09-.27.93-.3.51-.27.16-.25.16Z" fill="currentColor"/>
        <path d="M2285.75,871.63l-.48-.4-1.28-1.6-.17-.24-.3-.52-.16-.62.4-.43.3.16.38.4,1.41,1.49.55.71.25.51-.05.35-.13.27-.3.13-.43-.21Z" fill="currentColor"/>
        <path d="M2309.4,983.54l-1-2.19-.65-1.01-.52-1.06-.48-1.54-.05-.35-.13-7.16.08-.32.14-.27.48-.35,4.18-1.79.32-.11.4-.03.3.11.17.24.22.59-.14,1.14-.27.9-.44,1.16-.35.87-1.35,3.94-.17.62-.14.67-.09.67-.05.74.08,1.49.59,6.54-1.12-3.5Z" fill="currentColor"/>
        <path d="M2309.05,1007.99l-.17-.21-.27-.86-.13-.67.33-5.05.1-.7.65-4.45,1.44-5.99,2.2-.49,3.78.52.27.16-.14.67-.89,1.95-.76,1.68-1.25,4.02-.85,2.77-.54,2.23-.27,1.71-.19,2.15-.09.32-.25.16-2.53.11-.43-.05Z" fill="currentColor"/>
    </g>
    <g class="aus--nt">
        <path d="M1319.66,137.33l1.82-.82,3.91-.57.32-.02.27.14.14.24.11.6.24.52.22.17.35.06,2.93-.3.3-.1.71-.49,2.42-1.84.4-.43,2.96-6.81.92-2.33.06-.35-.06-.32-.36-.73-.95-1.01-.54-.27-.76-.03-.78.41-.57.14-.62.11-1.68.17-.72.02-.36-.06-2.96-1.2-.32-.46-.11-.98.06-.38,5.89-5.59,9.66-6.35,6.34-1.12-1.31,4.29,3.39,9.52.38.73.6.98,2.84,4.1.16.21.49.32.3.09,1.57-.19.32-.05.54-.24,1.48-.93.4-.35.13-.27.08-.35-.06-.32-.13-.24-.19-.25-.59-.59-.41-.33-.57-.25-.33.06-.85.29-.71-.02-.27-.14-.24-.52.08-.35.35-.48.21-.14,3.88-1.09.35-.02.79.1,4.99,2.64.24.17.22.17,2.95,3.34,2.8,3.31.19.25-.1.62-.14.25-.57.67-.68.49-8.76,5.46-3.34,3.8-5.8,9.12-1.3,6.91-7.21-2.63-.57,3.81,3.52,6.39-.05,5.53-.97,5.42-2.95,3.55-1.06,2.3-.32-1.55-.09-.27-.27-.14-2.06,1.12-.17.17-2.23.36.19-4.15.16-5.21.02-.73-.09-.29-.32-.41-.24-.17-.7-.14-.7.06-.57.19-.43.35-.36.49-.29.52-.17.6-.03.38.09.28.19.25-1.41,3.36-2.43,2.22-2.23,1.77-.48.32-1.92.08-.32-.14-.59-1.65-.08-.32-.02-.32.03-.35-2.76-.57-5.8,2.22-.25.13-3.23,2.58-.43.36-.17.22-1.79,3.12-.11.27-.11.73.33.81.19.21,2.12,1.46-1.5,3.36-2.54,2.04-1.06,4.75-.14.7.16.95,2.07,6.6.14.29.32.41.49.36.78.41.62.21.4.06.76.03.95-.24,1.05-.46.46-.32,1.13-.89.19-.22.92-1.47-.32,4.26-1.81,5.94-3.64,5.43-.93,6.02-.65,4.29-1.33,2.82-.51.27-3.47,1.93-1.28.73-.87.7-.76.87-7.4,9.36-.19.25-3.33,5.19-.57,1.05-.62,1.39-.51,1.6-.06,1.12.06.32.38,1.12-1.85,1.3-5.28,3.42-2.31-.03,1.87,5.78.38,1.17,1.12,2.68.24.52.57,1,.6.95.54.7.52.6.4.38,3.33,2.71.27.14,1.98.9.95.32.68.17,3.53,1.11,10.34,6.45,1.73,1.11,1.51,1.3.78.81.84,1.12.19.17.49.32,6.15,3.04,8.87,4.5,1.6,1.24.1.27.62,3.1.65,3.37.11.68.41.78.33.41.22.22,1.85,1.66.51.32.95.35,6.64,2.63,6.34,3.44,1.7,1.19,4.15,3.48,2.52,3.33.25.52,2.63,2.09,5.42.44,3.41-.33,6.27.48,6.05,3.07,7.95,5,.6.63.65.55.46.35,1.88,1.38,1.44,1.01.54.27,3.44,1.5,2.57,1.05,1.05.19.41-.02.9-.24,1.14.03.37.08,2.18.7,3.5,1.16,4.8,2.17.27.17.38.38,1.81,2.55.81,1.2.4.68,1.06,2.07.3.46,2.19,3.31.19.22,1.49.95,2.69,2.11,2.14,1.92,1.65,1.57-.02,48.16.03,95.04-.03,77.91.05,19.02-.02,24.71-.03,41.78.03,20.94.02,19.01-.02,5.69-.03,19.02.03,11.4.02,9.49-.02,20.92-.02,11.42-.02,7.59.05,26.58-.05,36.13.03,43.71h-7.63s-60.81.03-60.81.03l-7.63-.03-22.83.03-167.22-.03-119.77.03-53.21-.03-57.01.03-3.82-.03-12.98.31-.32-.03-.02-.32.02-45.95.02-14.87-.02-18.72-.02-31.98.03-27.61-.03-18.99.02-28.18.03-8.55v-32.24s-.03-2.62-.03-2.62l-.02-1.87.03-77.65.02-5.39-.05-17.74.05-68.63-.05-96.93.03-59.62-.03-46.84.05-15.2-.02-13.27-.03-1.63,3.64.94,1.46.68,5.23,4.24.22.22.13.22.1.29-.82,10.03.95,1.14,3.72-4.47-1-5.57-.13-.55-1-7.4-.08-.63.13-.73.49-.3.36.02,5.29,1.54.57.25,6.68,3.28.81.41.7.55.62.59,7.93,8.74,2.08,2.38.1.63-.11,1.84.05.27.13.25.22.19.32.11.35.05,2.64-.6.22-.21.02-.35-.1-.29-.35-.48-1.71-2.25-.35-.43-1.15-1.48-.35-.16-.43-.29-.18-.28-1.63-3.66-.08-.32-.66-3.69-.05-.32.05-.35,1.27-2.14.42-1.84-.11-1.72.11-.3.25-.13.4.08,2.39,1,5.09.63.78.02.57-.14,3.12-1.12,3.66-3.02.89-1.27-7.92,2.69-1.81.49-.38-.02-.35-.08-2.3-1.36-.22-.14-1.95-1.33-.44-.33-.18-.21-3.74-4.8-.32-.48-.73-1.57-.17-.89.1-.35,1.48-.48.33-.1.57-.1.42-.04.68.03h1.29s1.63-.28,1.63-.28l.52-.25,3.23-2.25.46-.33.6-.6.3-.51-.22-.19-.65.08-.59.13-2.88,1.35-2.32.56-.69.25-.2.03h-.22s-3.52-.31-3.52-.31l-2.72-.95-.3-.13-4.71-2.63-5.46-4.42-.08-.65.05-.38.66-4.23,3.44-6.34,3.53-4.56,5.05-3.2,6.16-3.42.82-.33.25-.14.67-.51.74-.81.79-1.74,2.33-12.54-.32-1.92.05-1.05.33-1.38,2.22-8.47.16-.29,3.18-3.94.46-.33.32-.03.17.25.08.29-.02,2.77.17.57.38.4,1.41.67.67.21.79.1,1.27-.17.79-.17,1.58-.44.55-.25.7-.43,3.72-2.42,2.81-1.9,5.72-5.92-.56-2.12-3.31-4.47-.52-.65-.82-.79-.71-.48-.3-.14-.71-.13-.65.08-.4-.05-.17-.21-.13-.25-.17-.57-.03-.71.49-9.57.05-.38.62-1.88.29-.55.13-.08,1.79-.87.29-.08.35.08.22.17.05.68.16.55.17.22.49.36.3.11.74.17,1.89-.33.81-.33.95-.6.92-.59,1.11-.9.58-.59.46-.73.46-1.2.29-.98.05-.38.08-4.37-.08-.95-.35-.78-.27-.86.02-.35.51-1.58.16-.3,8.19-3.82.32-.05.4.05.44.36,1.83,2.67.15.29.1.37,2.36,2.21.35.08,1.35.16,2.38-.05.97-.13.3-.13.22-.17-.05-.32-.25-.14-2.6-.76-2.3-.25-.98-2.67-.78-2.7.08-.68.35-.9.58-1.14.49-1.12.3-.93.73-3.75-.17-.21-.25-.14-.89-.38-.82-.44-.18-.22-.03-.32.37-.43.22-.16.84-.3,1.01-.13,1.03.02,1.06.22,6.21,2.19.62.24,6.87,11.89.02-1.87,3.28-4.05-5.56-4.37-.19.22-.25.13-.97-.3-.92-.73.57-2.36,1.09-1.84.25-.13,2.08-1.01,2.12-.38.35.08,2.87.36,2.71.17.52-1.81-.35-4.18-.13-.63-.22-.49-.73-.9-.41-.36-.26-.46-.09-.28-.05-.32.18-.68.33-.9.27-.55.41-.38.54-.17,4.47.22.36.08.43.36,3.04,2.06,2.31,1.38,7.46.35,1.52,1.38,2.11,1.52.78.43.57.3.57.22.67.19.79.08,1.11.08,10.79-.51,2.99-.27.97-.13,1.22-.25.92-.25,8.36-.33.27.16,2.36.98,4.21,1.27.74.11.3-.08.25-.13,8.65-6.11,7.41.03.38.06.27.11.78,1.21.62.74,1.34,2.92.41,1.06-.03.35-.19.22-.73.43-.22.21-.37.43-.29.48-.22.6-.05.4.89.24.81-.73,1.32-1.47.14-.25.33-.86-.46-2.82-.27-.64-.16-.5-.13-.53v-.4s-.17-1.94-.17-1.94l.08-.35.44-1.16.52-.7.25-.21.51-.22,6.91-2.36.17.21.49.36.79.4.3.11,4.29,1.17,1.46.3.4.03.32-.03,1.22-.27.51-.27.19-.21-.35-.08-1.77.06-.38-.05-.27-.14-3.34-2.28-.44-.36-.17-.25-.32-.81-.17-1.27-.02-1.05-.16-12.24.59-3.64.65-.95,2.6-3.82-.05-.36-1.76-1.03-.25-.14-6.59-4.96-2.87-4.02-1.61-1.17-.57-.25-.65-.19-2.5-.44-1.17-.17-7.9,1.2-.87.27-3.26,1.55-.25.14-3.1,1.88-1.41-.19-.52-.25-.44-.35-.4-.4-3.82-4.32-1.43-2.88.25-.13.19-.22.08-.33-.02-.35-.08-.29-.17-.22-.22-.17-3.59-1.5-1.74-.73-.79-.09-1.59.28-1.42.42-.97.13-1.01-.19-.22-.17-.17-.25.02-.3.48-.65,5.78-6.73,5.72-2.87.32-.08.35.05.62.25.48.29,4.85,5.37,3.69,9.49.56.65.27.14.3.06,1.43.08.28-.1.17-.21,1.58-2.8-2.45-7.76-1.27-1.76-1.27-1.85-.13-.24-.22-.57.08-.65.21-.17.33-.05,1.46.08.33.11,4.9,2,.7-.48,3.15-1.73.35.11,6.56,4.96,2.47,2.53.17.22.48,2.22.03.36,7.48,9.87.54.63.65.54.27.14.3.11,2.31.73.85-.25.22-.17,2.12-1.77,3.52-4.77,2.17-2.95-.22-.52.08-.33.19-.22.32-.05,2.25.46,1.39,1.43,2.83,2.96.49.67,2.91,4.39,1.09,2.47.05.67.18.6,1.38,2.44,2.44,4.05.49.67.43.4.44.35.98.57,1.22.48,1.93.57.75.11,3.2-2.14,1.71-.52.62-.14.52.33.27.44.05.32-.11.3,2.63,3.53,8.08,3.34,3.69.13.36-.05,2.58-.84,5.29-2.8.48-.3.82-.7.32-.48.62-1.43.25-.13,1.74.02,4.34,1.06.63,1.77-3.74,2.06-.43.32-.48.73-.16.3-.09.3-.05.35.02.3.22.57.4.35,1.55,1.31,3.3,1.6.62.17.65-.1,2.09-1.01.46-.3.22-.17.54-.57.29-.52.11-.3.32-.52.65-.52.68-.05.62.22,7.4,5.7-.66,1.11.79,4.58,1.08.89,9.31-1.36,1.41.71,1.16.41.7.14,3.31.41,1.06.03.7-.06,4.7-.59,3.83-2.72.4-.4.19-.25,5.39-.22.1.29,1.66,2.57,3.28,4.61.4.38.27.14.97.29,1.11.17,5.15,3.14,4.94,4.01,6.19.59,2.22,1-.3-1.08.9-2.95,1.43-2.96,3.5-3.44,2.93-1.22,1.67.14.87.38-.09.3.27.54.3.1.76-.02,8-.98,4.01-2.63.22-.17.17-.22.14-.25.08-.35-.06-.35-.13-.21-.27-.17-.32-.06-.65.1-.29.1-.75.4-.68.49-1.25,1.11-.24.1-.37-.08-.32-.44-.09-.29-.05-.67.03-.38.06-.35.97-3.34.11-.3.17-.22,5.16-1.2,1.14.1.3.11,1.06.21.4.03.6-.14.72-.41,4.45-3.36,1.96-1.5.38-.4.29-.52.11-.3.25-1.03-.24-.52-.41-.38-.35-.43-.14-.24-.1-.29-.02-.35.14-.25.22-.19.28-.13.29-.05.4.03.92.3.54.29.66.52.71.87.28.49-1.72,2.93-3.47,2.39-6.3,4.96-.17.22-.11.3.02.35.22.17.7.1,1.82,2.41-6.16,5.97-.37.44-.14.27-.17.68.02.7.06.67.14.6.28.84.46.7.4.38,2.47,2.28,2.79-.93.22-.65.38-1.25.35-.82.19-.22,4.39-3.41.25-.14,7.83-2.2-4.63,4.83-.33.52-.06.32.02.35.22.52,1.38,2.14.22.17.27.13.74.03.33-.06.33-.13.21-.13.4-.44.27-.44.43-.35.76-.44.57-.19.36.03.57.29.36.41.1.67-.03.35-.14.27-.17.22-3.93,4.96-.54.62-.09.3-.03.4.09.27,1.62,3.37,1.35,1.43.32.11.54-.67Z" fill="currentColor"/>
    </g>
    <g class="aus--wa">
        <path d="M73.59,710.28l9.96-3.79.78-3.48.24-1.03.13-.38.43-1.2.48-1.22,2.99-7.06,3.26-5.88,6.05-9.23.14-.27.21-.63-.02-1.06.08-1.12.08-.35.24-.6.4-.48.41-.35,2.57-1.52,2.44-.71,5.75-3.01,5.26-3.18.32-.13.57-.19.38-.05,1.54.11,1.57.25.73-.05.65-.14,1.14-.44,6.1-2.88,4.89-2.2,5.2-1.46,6.21-2.53.73-.48.65-.57,1.52-1.77,1.41-1.84,1.61-2.04,3.99-4.13.9-.71,2.26-1.71.57-.22,2.95-1.03,2.57-1,.54-.25.52-.27.71-.49.54-.7.84-1.68,1.46-2.57.87-1.17,1.58-2.09.57-.65.44-.36.22-.17,1.55-.87,1.88-.9,1.2-.36,6.46-2.42.82-.35,1.01-.59.65-.6.36-.87.78-2.47,3.61-1.88,3.45-.41,9.47-3.17,6.51-3.72.97-.59.44-.35,5.31-4.29,4.45-.05-.06.35.06.67.17.25.4.38,1.82,1.5.51.27,1.61.52.38.06,1.01-.19.52-.24,1.3-.67.54-.29.44-.35.6-.65.44-.32,2.09-1.09,2.69-1.27.55-.24.94-.24,5.15,1.14.28.49.52.65.9,1.09.43.38.57.27,3.29,1.35.65.21.7.16,1.09.21.7.13,1.2.13.46.03,1.95.03,1.13-.03.68-.11,3.98-.71,11.45-2.25.3-.06,2.84-1.11,5.07-2.06.55-.24.79-.44,3.93-2.83.32-.46.44-.85.14-.65,3.74-3.2,3.91-3.31,3.58-2.36.74-.46,1.33-.65.57-.24.24.17.14.25.22.9.38.41,2.25-.08,9.27-1.39,8.43-1.39,5.88.25.32.11.41.02.38-.05,7.6-2.58,1-.6.22-.22,7.11-8.57.32-.48.54-1.09.65-2.22.06-.35.11-.3.17-.22.22-.19,5.39-3.77.25-.14,4.93-.6,1.14.14,10.09,2.28,3.9,1,6.43,2.74.65.19,1.16.16.36-.03.93-.25,5.21-2.72,1.6-1.16,3.69-1.5,13.51-2.2,7.7-.92.74-.03,1.9-.09,1.74-.25.59-.17,4.83-1.49.89-.3,12.23-4.78,18.2-7.22,1.85-.84,4.31-2.04.79-.4,1.54-.89,2.77-1.96,2.77-2.01.68-.51,4.07-3.1,1.16-.92.6-.52,2.15-2.22,2.49-2.72.78-.86,8.82-11.93.86-1.55,3.06-5.83,4.69-10.25,7.56-8.93.27-.55.09-.27.05-.4-.02-.3-.08-.32-.36-.79-.3-.47-.21-.19-.27-.17.43-2.3,2.03-4.32.54-1.06.21-.19.25-.14.36-.02.32.09.21.19.71.49.32.13,1.87.21.62-.14,2.53-1.39,3.03-2.17.89-.73.6-.57.55-.63.82-1.2,1.35-2.14,1.03-.19.82-.4.71-.44.97-.62,10.38-7.36.43-.33,1.11-1.27.9-1.47.22-.57.51-1.46.17-1.08.03-.73-.35-1.6-.22-.54-.3-.48-.4-.44-.87-.3-4.53-1.2-2.39-3.28.03-.82-.62-10.18-.08-.36-.22-.51-.44-.74-.51-.68-.25-.51-1.41-3.9-.3-.87-.19-.97-.13-1.69.3-9.42,1.77-6.83,4.47-7.52.38-.41,1.2-1.14.41-.38,4.23-3.8.95-.84,1.16-.81,2.22-1.31.49-.29.3-.11,4.12.27,3.09.14-.49-.67-2.28-4.31-.33-.82-.09-.62.16-.22,2.04-2.74.62-.55.78-.35.36-.06.32.05.19.19.41.79.19.19.29.13.71.06.62-.16,2.11-.67,4.31-1.47.57-1.63-1.38-1.69-.14-.24.05-.38,1.27-4.99.22-.57.63-.9.82-.73.29-.11.4.02.6.21.76-.02.78-.4.44-.33,2.71-2.74.17-.62-.02-.68-.13-1.01.02-.38.35-.84.14-.25.89-1.47.28-.11,3.93-1.36,3.96,3.23.06.3-.05.35-.29.49-.51.68-.21.17-.28.11-.73-.06-.3-.13-.21-.16-.54-.24-.33-.09-.35.03-.29.11-.21.17-.17.24-1.65,5.89.11.27.95,2.01.38.41,2.23,2.2,2.26,1.22,1.01.44,1.08.95,1.16,4.37,5.04,9.09,5.88,10.56,3.8,6.24,3.44,5.46,2.47,3.79,3.29,4.85.95,1.06.11.25,1.19,4.58.24-.13.19-.21.21-.68.48-3.85-.08-.28-1.19-1.62-.49-1.01-.22-.87.21-4.48,3.01-8.92.3-.54-2.63-6.86-.17-.93.06-1.36.06-.4.24-.63.55-1.11.46-.76,2.95.14.36.08.3.14,3.85,4.01,1.87,2.47.54.98.73.87,3.83,3.37.7.54.82.49.71.17.35-.02.6-.14.51-.28.19-.21.03-.4-.27-.13-1.47-.4-.62-.22-.24-.16-1.96-2.39-.33-.44-.13-.25-.21-.55-1.35-4.86-.46-1.73.16-.93,2.23-2.79,3.12-2.88-1.9-.97-4.34,1.28-.59-.28-.63-.65-.38-.73-2.08-4.66-6.27-6.54.33-6.22-3.82.16-.24.16-1.84-.08-.44-.06-.35-.17-2.14-1.5-1.81-1.79-.16-.22-.08-.33.17-.24,3.83.27,3.98,1.05,2.71.84.78.13.97-.17,3.86-5.65.49-2.93-.06-1.87-.17-.22-.27-.16-.97-.38-.36-.03-.66.06-3.94-.57-.3-.11-.54-.32-1.68-1.57-.29-4.47.22-1.08.43-.84.17-.25.22-.16,1.55-.68.27-.11,6.7-.97.36.03,3.99,2.74.25.19.17.22.11.3-.05.33-1.38,2.33-2.8.57-.27.11.17.22,6.05,6.05,2.98.62.02-2.06.13-.33,4.02-5.21,6.61.87.68.19,1.19.52,1.54.68,1.14.55.73.86.55,1.63.76,1.88.36.81.14.22.16.22.48.38.6.17.7.19,5.07.24.63-.11.16-.68.29-.55,1.55-1.71.52-.35.29-.05.32.13,1.24.78,3.47,1.69,5.51.54.7.03,4.56-.68,3.15-.49,1.04-.05.41.03,1.06.27.32.13,3.77,2.17.67-.06,2.44-.55.52-.24.13-.3-.11-.25-.27-.16-.76-.16-1.66.16-.3.08-.68.06-.4-.06-.74-.22-3.77-1.38-2.28-1.2-.44-.35-.52-.32-.32-.11-3.86-.73-.41-.06-2.44-.16-.74-.03-2.76.59-.57.14-1,.62-2.87.13-.73-.06-.25-.16-.68-.93-1.05-2.68-.35-3.45.84-2.68.13-.3,2.14-3.83,2.3-.52,1.65,2.88.76,1.14.65-.03,3.91-2.8-.44-5.21.93-3.8.74-2.14,2.88-3.17,3.39-2.79.21-.21-.08-.29-1.66-.68-1.41-.4-.33.03-2.38.43-.44.3-.4.41-1.92,2.71-.94,1.49-.57,1.06-.92,2.11-2.68.05-4.72-3.58-.21-.19-.24-.87-1.13-7.06-.35-3.45.06-.35,4.29-10.2.4-.43.49-.28,1.06-.46.3-.08.35.05,2.08.86.52.36.11.55.25.21,1.93,1,.3-.08,1.27-.49,2.84-1.58,1.19-1.36-.35-.09-.59-6.35-.17-3.63.24-1.03.13-.25.3-.08,1.87-.16.35.09,11.64,5.81,1.57,1.25.21.17,2.33,2.12.6.63.16.59,10.5,4.62.1-.45-.21-.19-.44-.38-2.99-2.28-1.05-.7-.97-.62-.43-.38-.17-.22-.21-.54-.03-.32.16-.73.81-2.53.32-.54.4-.38.46-.33.52-.24.25-.87-1-.62-.68-.33-4.56.1-1.43.51-1.31.59-.24.17-1.77.92-.3.11-.29.03-.35-.13-.43-.41-.49-2.4v-.21s.09-.2.09-.2l.1-.15.33-.4,1.87-2.55,1.68-1.11.3-.06.4.05.33.49.17.17.44.38.25.16.35.09.27-.13,2.09-3.2.13-.3-.03-.28-.21-.22-.32-.08-1.57-.22-4.58,2.64-.27.22-2.02,1.36-.11.12-.41.58-.16.08-.18-.08-1.29-.22-1.71-3.91-.03-.32.09-.35,1.79-2.03,2.31-1.16.35.05,3.17.93,1.2-.36,2.57-1.3.6-.7.02-.35-.1-.25-.92-1.39,3.42-2.34,3.93,8.65.9.73.19-.21.46-2.19.02-.32-.73-2.11-.02-2.61,3.39,1.63,1.6.98,1.49.92.25.24.08.25-.3,1.41.03.32.22.19.82.48.84.36.67.21.4.06,4.55-.14.81-.4.46-.33.19-.21.25-.55.02-.35-.27-.21-.74-.14-.6.16-.25.11-.63.11-.36-.02-.27-.14-1.2-.86-.17-.25.06-.4,1.71-1.33-1.42-1.03-4.45-3.15-.66-.22-5.32-2.22-.03-.32.16-.25,1.71-1.88.22-.13,1.43-.43-2.22-2.57-.35-.4-3.52-5.19-.08-.29.03-.71.1-.33,6.05-7.84,1.24-1.19,4.06-3.09,2.98,1.25,8.49.63.76.03.66-.06,1.52-.35.33-3.25.27-3.74-1.09-6.41-.03-.63.29-2.41.46-1.11.81-1.06.63-.11.35.09,5.81,2.55.17.22.03.32-.81,2.96-.1.33-.19.21-.22.17-.27.11-3.71,15.38-.14.68.03.32.13.25.25.16.35-.06.19-.17.16-.25.4-1,2.44-6.98.17-.68.33-1.88.06-.7-.11-.6.06-.74.17-.29.17-.17.3-.08.76.16,5.86,2.82.43.7-.09.38-.46.29-.76,5.4.03.32.95,1.76.22.14,3.25,2,.35.09.86-1.58,3.64-4.01,2.6-1.57.22-.17.16-.25,1.51-9.58,4.34-8.47.09-.35.14-3.39-3.29-8.95-.17-.27-.21-.19-.74-.44-.89-.32-1.49-.68-.55-.32-.17-.19-.13-.25.13-.28.27-.13,2.74-.21,4.59.68,3.96,1.96-.08,3.8-.08.35-.43.36-.55.21-.6.19-.28.03-1.17.32-.21.21-.16.25,1.73,5.65.08.25.17.22.87.4,1.49.13.35.09,2.08,1.54.4.41.16.25.25.79,1.46-2.25-1.08-2.85.02-.35.74-2.61.16-.25,1.27-2,.16-.21,5.46-4.2,4.06-.59-.65,2.53-1.95,3.09-.11.25-.09.33-.02.36.17.22,6.4,7.79,1.84.52,5.8-5.94.19-.21,4.77-8.58-1.55-7.52-1-2.36.17-.3,6.02-2.28.55-.21,5.16-1.28.28.17,3.39,2.66,3.23,3.18.16.21.05.29-.05.38-.25.6-.82,1.22-.08.3.03.33,2.95,4.04.38.44.22.14.62.24.33-.03.19-.21.79-2.22.03-1.87,5.01-.21,6.48,1.88,3.72,1.16.22.19.17.21,1.11,1.57.25.51.08.28,3.88,5.02,7.57,4.96.48.33,3.96,5.07,1.65,1.87,1.06,1.98,5.37,7.87,4.1,5.88.49.33.3.13.65-.05.32-.16.19-.16.38-.43.16-.25.44-.33.4.05,1.58,1.25,4.91,3.9.68.55,2.28,2.38.76,2.22.32,3.34-2.75,3.85-2.98,8.98-.98,3.96-.13.7-.03,1.09.08.6.13.25.34,3.22.15.3.05.2v.61s-.4,9.84-.4,9.84l-.09.78-.4,1.31-.24.6-.44.86-1,1.01-.46.33-.57.6-.32.51.08.29.36.08.33-.03,1.01-.54,1.12-.84.65-.55.4-.43.51-.71.19-.29.37-.87.32-1.36.46-3.41.28-2.99.55-1.42-.26-.43-.42-.53-.08-.15.56-1.64.09-.15.14-.1.19-.02.19.07,2.61,1.12,2.05,2,.5.49,1.65,1.39.27.49.06,1.35.16.93.16.57.9,2.47.16.21.27-.11.06-1.06.1-2.53.03-1.73-.16-.93-.17-.57-.29-.51-1.59-2.7-.29-.2-.26-.22-.48-.51-.45-.67-.23-.48-.15-.52-1.85-5.96.05-.65.21-.65.6-1.06.65-.98.54-.68,4.17-5.13.19-.21.44-.35.3-.08.36.02.22.17.21.54.05.32-.06.71-.02,1.09.65,3.34.08.32.25.82.3.48.22.17.37.02,4.32.14.66-.06.22-.17.16-.25.33-1.81-.05-.32-.25-.51-1.05-1.35-.43-.73-.22-.49-.43-1.08-.38-1.11-.29-.9-1.52-5.02.09-.35.41-.38.58-.16,6.32-1.65,1.14-.28.65-.08,6.64,1.41,13.96,3.29,5.54,1.76.03,1.63.02,13.27-.05,15.2.03,30.42-.03,76.04.05,3.79-.05,138.74.05,32.21-.02,13.94-.03,49.73.02,29.79.02,2.62v32.24s-.02,8.55-.02,8.55l-.02,19.97.03,17.11-.03,16.78.02,52.88.02,18.72-.02,14.87-.02,7.9.02,38.36.32.03-.34.61.03,47.53.02,14.59-.02,91.51.02,22.81-.02,31.39-.03,53.53.02,24.71.03,18.7-.02,11.72-.02,7.2-.73.09-1,.22-1,.3-9.09,3.77-1.12.55-3.95,2.12-8.54,4.1-21.19,8.17-9.23,3.15-.97.3-3.11.51-6.91,1.05-5.18.87-6.19,2.06-5.15,1.82-11.63,3.66-3.82.65-5.86.89-2.28.26-5.81.29-1.85.08-17.3.62-2.77-.1-3.71-.28-6.54-.54-3.39-.43-4.04-1.14-1.46-.57-1.14-.33-1.24-.28-1.27-.25-1.74-.35-1.28-.16-.73.05-.7.11-.93.3-.55.29-.48.4-1.55.97-.87.4-.35.1-1,.16-.87-.09-1.87-.6-1.58-.44-.46-.05-.47.03-.51.16-8.59,4.18-.27.16-10.63,7-1.54,1.05-.48.41-.17.21-.05.27-.71.57-.7.54-.74.54-1.03.7-.89.46-3.26,1.17-.65.22-2.26.41-1.2.09-2.33.36-1.81.41-.33.11-3.03,1.41-14.16,6.64-.28.16-3.19,1.98-.28.19-.48.35-.47.38-.89.84-.38.48-.43.41-.71.59-6.89,3.47-.67.22-2.04.6-2.3.35-4.8.67-4.74.51-2.52.22-2.88.27-2.85.68-1.36.41-1.55.59-1.12.6-4.88,3.34-.71.57-1.49,1.46-.86.84-.19.22-1.89,2.34-.73,1-.3.59-4.89,12.91-2.09,7.93-.13.7-.24.59-.4.49-.76.54-1.19.55-3.33,1.87-3.99,3.5-1.16,1.03-.98,1.08-.77,1.32-.16.72-.06.27-.08.73.08.7-2.52,2.33-2.39,1.5-6.16,3.36-3.9.25-.27-.21-.55-.27-.74-.19-.89-.09-1.36-.06-1.87-.05-.43.02-.76.14-.57.33-.19.19-1.9,1.98-.85,1.27-.19.22-.24.24-.68.52-1.97,1.08-3.9,1.06-1.63-3.96-1.98-3.37-.46-.35-.59-.33-.7-.25-2.68-.89-.43-.05-.43.02-5.54,1.6-3.61,1.16-.76.13-.89.05-.6-.24-4.67-.65-7.08.06-.47.06-.57.22-.24.19-.4.44-.11.32-7.71.67-.7-.22-2.65-.63-.43-.05-1.27.11-2.61.86-.33.11-.3.14-1.5,1.16-.3.49-.17.67.21,1.71-.11.32-.16.27-.24.19-.29.14-.63.25-6.83.24-1.52-.32-.79-.19-.22-.16.09-.32.62-1.06.25-.19.74-.13.21-.22-.16-.63-1.05-2.57-.71-1.66-.27-.55-.97-1.12-.86-.89-1.11-1.05-.46-.41-.7-.17-.41.03-3.69.49-1,.32-.87.48-.4.41-.17.67-1.2.81-1.2.54-.67.22-2.23.46-.41-.05-.38-.21-5.89-2.12-8.13-2.17-.84-.08-3.09-.19-5.15-.13-1.79-.02-.38.06-6.45,1.3-9.58,1.03-6.95.33-2.14-.28-.84-.11-.48-.02-.76.13-1.2.52-1.16.54-.54.36-.59.25-.38.1-3.72.32-1.65.08-8.76,1.22-3.12,1.81-2.33,1.14-.97.32-.38.06-.43.02-.36-.09-2.17-.6-4.62-1.03-2-.33-1.32-.13-11.26-.7-.48.03-1.09.17-1.43.32-9.19,2.36-.68.25-.78.46-.51.36-.81.9-.7,1.01-.4.44-.7.55-1.33.82-.89.43-1.55.63-1.63.62-1.6.59-2.79,2.61-.41.44-4.2,5.91-.29.57-.19.65-.57,2.66-.06.74-8.06,6.19-6.67,3.28-1.33-.54-4.21-1.16-1.85-.49-7.95-.93-.48-.03-1.11.22-1.22.52-6.73,3.79-.84.51-1.01.71-1.03,1.11-.13.32,1.98,1.82-.83.89-.46.4-.71.59-1.14.6-2.91,1.47-.54.27-.35.1-1.16.17-1.19.17-1.06.24-3.1.84-2.2.85-.3.14-1.09.59-.51.36-.46.4-1.16,1.46-1.05,1.54-.56,1.52-.16.7-.03.38-5.99,3.36-11.4,5.04-13.43,1.87-.35.1-.3.14-.21.22-.08.35.02.35.11.28.66.62.81.52,1.24.57.41.08,3.06.49.41.06.4-.05,1.61-.57.7.24.33.49.06.32-.3.13-2.85,1.11-.7.21-.38.05-3.34-.44-.36-.1-.32-.14-.71-.53-2.01-1.5-1.44-.79-1.65-.68-.74-.17-.89-.13-2.68-.02-.76.11-.35.09-.59.27-.78.54-.41.44-.38.52-.33.95-.4,2.23-3.17-2.27-1.19-.59-9.65-3.45-1.03-.35-.78-.16-8.47-.4-12.77.11-.43.02-.68.19-1.03.74-.33.49-.13.3-.38.47-.3.14-.77.1-.9-.02-1.63-.32-.73-.24-.97-.41-5.15-1.3-3.79.87-3.2.05-7.9-1.84-.32-.14-4.69-2.87-2.9-1.69-3.2-1.74-1.27-.57-1.68-.67-2.17-.67-4.93-.93-6.78-1.06-1.2-2.85-.49-1.05-1.58-2.5-.32-.46-5.5-5.21-1.12-1.01-.68-.6-7.67-6.37-8.38-4.66-.62-.29-5.62-2.55-.63-.28-3.61-1.46-.36-.11-3.42-.32-.46-.03-1.63.11-1.11.17-.73.17-.59.24-.57.35-.21.17-.35.55-.25,1-.22.22-.98.73-.48-.03-2.52-2.2-3.33-3.04-.43-.43-.11-.29-.08-1.36-.02-1.06.05-.38.22-.65.09-.78-.06-.71-1.89-8.71-1.08-8.69-.25-9.71.05-.4,1.87-9.07.1-.41.8-.07.41.08,1.41.46.57.33,1.52,1.46.62.67.16.25.22.57.05.32.17.55.16.25.21.21.52.36,2.71,1,3.17.95.41.08,2.46-.08,1.19-.1,1.52-.19.73-.14,2.38-.67,1.9-.67,1.74-.84.25-.17,13.05-16.69.79-.06.63-.22.51-.35.43-.48.25-.57.25-.65.17-.68.03-.74-.05-.32-2.53-14.68-.93-3.28-1-3.25-.89-3.31-.06-.32-1.36-6.92-.08-.63.05-.4,1.14-3.15.13-.3.17-.27,3.36-3.96.22-.22.49-.35.35-.09.25.17.03,1.33-.08.35-.3.14-.33.08-.25.17-1.85,1.63-.87.82-.43.82-.02,1.46.27.92,2.14,5,.1.17.84,1.61.51.4.41.06.38-.05.25-.17.17-.25.08-.35-.06-.68-.16-2.37,1-4.06,1.62-4.1-1.03-7.05-.65-7.3-.05-2.93.38-.52.97-3.72-1-5.69.35-8.63.02-1.09-.02-1.46-.06-.67-.13-.95-.06-.32-1.81-8.03-.22-.92-.59-1.41-.68-1.31-2.41-3.72-4.12-6.37-6.62-10.37-.63-1-.25-.52-2.31-5.18-1.13-3.53-.38-1.14-3.17-6.34-.32-.51-3.45-5.15-1.63-2.09-.21-.22-.71-.57-1.98-3.96-4.93-10.44-1.81-4.15-.22-.52.17-.67.25-.6.08-.32.05-.38-1.8-11.31-2.14-7.17-.1-.32-1-3.23-.27-.54-.25-.17-.9-.43-.19-.21-.16-.25.17-17.79.03-1.06.14-3.25.22-1.95.14-.81.63-2.82.21-.65.51-1.2.18-.3.24-1,.03-1.06-.1-.63-2.53-8-.21-.57-.3-.51-1.25-1.68.11-1.76-.05-.32-.11-.63-.73-2.34-.21-.54-2.64-5.61-.49-.71-6.3-6.97-1.65-1.36-1.46-1.03-.29-.14-.46-.4-.4-.43-1.19-1.71-.62-.92-.9-1.5-.16-.95-.21-1.28-.17-1.16.16-.25.17-.7.13-1.84-.02-.35-.25-2.34-.27-2.31-.35-.85-2.92-5.34-.9-1.49-.65-1.01-7.59-9.53-3.18-4.85-.16-.21-.19-.22-.6-.29-1.32-.47-.6-.3-.54-.32-1.28-.87-1.03-1.08-.4-.43-.54-.68-2.26-3.01-.36-.78-.3-.86-1.66-6.92-1.2-5.15-.1-.68.08-1.09.14-.73.55-2.07.87-2.09.29-.55.54-.7.25-.6.05-.4-.41-2.2-.79-3.37-1.6-5.57-1.17-3.1-2.6-4.97-5.15-9.41-7.86-13.19-.68-.97-5.67-7.68-5.81-7.13-2.87-3.28-1.35-1.5-.68-.59-.52-.33-2.52-2.01-9.3-8.65-.29-.51-3.09-8.89,1.66-2.47.71-1.43.24-.6.09-.35.1-.78-.19-2.3-.33-1.54-.03-1.06.08-.38.3-.92.29-.6.21-.17.33.11.38.43.05.33.52,5.27.09,2.34.05,3.15,1.71,3.2,1.35-5.26.44-3.85,8.41,9.3.14.25,1.06,2.77.05.33.27,3.41.38,6.13,1.33,3.52,4.09,4.74.24.17,1.2.21.44.03.17-1.47,3.68-2.28,1.58.29.25.17.29.14.38.08.29-.13,1.39-1.71,2.31-3.79.46-1.3.05-1.46-.06-6.73-.25-.52-1.19-2.04-.3-.48-.63-.57-1.87-1.55-2.6-1.36-5.21-3.26-5.69-5.08-.14-.6-1.01-4.58-2.06-7.06-.38-.78-2.44-3.31-2.17-2.9-.57-.65-.4-.78-.06-.87.05-1.03.13-.73.25-.97.46-1.25.29-.55.49-.78,2.84-3.93,1.61,1.11,1.82,3.61,3.03,4.5.38.48.38.4,3.17,2.63,2.03,1.38.57.3.24.22.14.29,1.62,4.32.14.6-1.22,6.45-.13.3-.21.22-1.16.9-.6.93.36,3.88.14.97,1.51,3.83.24.19,2.06.44.67-.14.44-.38,1.05-1.08.41-.44.36-.48.98-1.6,2.36-4.32.13-.3.82-1.38,1.51,5.31,1.24,4.99.22,2.93.05.32,1.55,3.5,6.11,7.65.36-.03,6.75-4.75.21-.22.16-.25,1.35-3.61.11-.62-.19-.97-.33-.46-.4-.4-.78-.46-.21-.22-.38-1.22-.54-2.09-.11-.6,1.38-8.66.62-2.39,1.9.7.98-1.76.17-6.38-.05-.68-.14-.21-6.68-6.34-4.93-4.55-.9-.84-.33-.43-4.55-7.67-1.87-3.25-.43-.79-2.42-5.65-1.82-4.39-1.44-3.52-.57-.65-.24-.19-.76-.54-2.2-1.24-1.92-.63-.57-.29-.24-.19-.28-.49-2.2-5.16-.29-.82-2.17-6.78-.62-2.06.28-.97.41-.81.28-1-.1-2.46-.19-.87-.48-.73-1.66-2.36-1.33-1.82-2.69-3.06-1.14-1.27-1.14-.97-.57-.57-1.57-1.69-.14-.25-1.38-2.88-.33-1.17-.27-1.28-.43-10.58.02-.71.11-.3.16-.25,2.12-4.97,1.25-7.02,2.38-7.6,2.52-6.89,3.85-7.11.17-.25,1.73-1.58.27-.14,1.23-.33.55-.22.27-.13.51-.35,3.14-2.55.19-.22.32-.55.94-2.77.3-1.77.74-5.61.08-1.05-.05-.33-1.24-7.14,1.27-5.04.95-1.17.68-1.38.24-.6.17-1.12-.62-5.54-.38-1.14-1.79-5.04-.38-.78-.41-.74-.28-.51-.29-.49-.46-.71-.33-.48-.98-1.08-.46-.32-2.01-2.82-.84-4.64,1.54-3.33.45-.31.37-.52,2.03-3.23,3.79-8.05,1.17-3.06,1-2.79,1.44-4.43,1.68-5.32.29-.6,2.04-4.21,3.6-5.46.67-1,.57-.68.7-.52,3.1-1.65.52-.22,3.23-1.01.6.25.43.4.17.21.28.54-.08.67-.84.78-.59.65-.62,1.08-.4.86-.33,1.38-2.88,14.14.05,1.03.29.86.24.52,2.01,4.15,1.17,1.6-1.09,5.1-.22.17-.16.27-.08.33-.35,4.4.19.55.84,1.19.38.43.48.36.32.09,2.88-1.08Z" fill="currentColor"/>
        <path d="M697.16,262.12l-2.49-1.27-.22-.19-.03-.33.08-.78.36-3.37,1.22-3.17.16-.25,1.92-2.36.22-.16.3-.11.32.08.47.35,1.92,2.09.13.25-.06.38-1.3,6-1.81.71-.24.16-.16.25-.48,1.71h-.32Z" fill="currentColor"/>
        <path d="M685.69,283.93l-.79-.16-.3-.13-2.88-1.95-.11-.25.02-.71.43-.89.4-.41.25-.08,2.38-.52.21.19.13.3,1.01,3.61.05.71-.11.22-.3.08-.36-.02Z" fill="currentColor"/>
        <path d="M678.05,298.26l-.13-.25-.14-1.17.11-.73.14-.29.22-.17.73.03,1.17.17.35.08.3.13.22.19.03.32-.16.25-.86.74-.7.49-.25.13-.87.27-.17-.19Z" fill="currentColor"/>
        <path d="M653.93,300.54l-1.12-.33-.93-.57-.13-.25.02-.35.16-.22.27-.14,4.66-2.23.3-.08.36.02.3.13.18.22.2.54.02.32-.52,1.74-.59.62-.22.17-2.58.52-.36-.1Z" fill="currentColor"/>
        <path d="M661.87,305.94l-2.98-2.61-.13-.25.49-2.26.13-.29,1.11-1.82.19-.21.24-.16,2.57-1.27,1-.09,5.05,7.92-.21.21-.79.36-.52.19-5.65,1.88-.49-1.6Z" fill="currentColor"/>
        <path d="M139.8,616.43l-.17-.21-.79-.43-.35.05-.27.14-.82,1.17-.22.21-.33-.14-.17-.22-.11-.24-.22-.68.11-1.43.08-.74.16-.3.49-.7,1.62-2.07,3.45-4.29.41-.38.93-.67.27-.13.3-.09.65.09.19.17.09.29.71,3.72-.06,1.05-.19.7-.27.55-3.03,4.29-1.36,1.05-.52.27-.57-1.03Z" fill="currentColor"/>
        <path d="M11.56,850.32l.41-5.7.08-.33,1.46-5.4.17-.25.43.35.14.25.17.97-.05.4-1.12,7.54-1.41,3.94-.29-1.76Z" fill="currentColor"/>
        <path d="M8.62,867.98l-.32-.51-.14-.55-.05-.71.05-.4,1.82-6.49,1.11-1.46-1.6,7.78-.68,2.57-.19-.22Z" fill="currentColor"/>
        <path d="M15.33,916.35l-8.47-11.56-4.23-7.6-.09-.29-2.53-8.81.02-2.49.05-1.09.32-1.43.25-.6.16-.25,1.27-1.68.44-.38.32-.1,2.34.41.38.08.09.29-.08.3-.41.43-.52.73-.13.3-.17.7.05.98.19.57,2.27,4.77,2.8,7.49,1.33,3.63.33,1.54,3.07,5.78,1.33,1.16.44.41.38.78.57,1.36,1.19,3.34-.08.67-.98,1.58-.21.22-1.68-1.24Z" fill="currentColor"/>
        <path d="M157.02,1264.76l-.87-3.04-.05-.29-.02-.71.08-.35.17-.25.57.24,1.3,3.75-.08.35-.43.9-.68-.6Z" fill="currentColor"/>
        <path d="M585.25,1372.15l-.14-1.3.28-.14,2.14-.46.32.13.08.32-.05.35-.22.65-.29.16-1.71.38-.41-.08Z" fill="currentColor"/>
        <path d="M531.91,1374.48l-.22-.16-.17-.21-.21-1.73.06-.35.25-.17.46-.03.82.49.17.24-.06.35-.43,1.2-.35.49-.33-.13Z" fill="currentColor"/>
        <path d="M316.39,1418.87l-.32-.17-.81-.51-.49-.38-.17-.24.03-.35.25-.19.35-.13.46.06,1.28.54.6.3.22.17.16.28-.08.35-.25.22-.3.13-.38.06-.55-.16Z" fill="currentColor"/>
        <path d="M779.86,219.67l-1.33-.3-.4-.06-.33.03-.59.16-1.08.44-.33.03-.21-.19-.38-1.27.05-.35.16-.25.29-.06,1.79.27.35.09,3.34.97.16.22-.16.25-.44.33-.89-.32Z" fill="currentColor"/>
        <path d="M884.26,283.39l-3.23-3.52-.57-3.61-.13-.95.13-.33.19-.17.33-.05.27.16.4.4.78.81.7.87.4.76,2.06,3.99.35.79-.11,1.76-.27.11-1.28-1.01Z" fill="currentColor"/>
        <path d="M867.85,290.59l-.22-.19-.16-.22-.27-.51-.08-.63.25-4.21.16-.22.29-.08.41.02.57.24.32.46,2.23,3.55.3.51.29,2.44.03.68-.16.28-.21.21-.33.05-3.42-2.36Z" fill="currentColor"/>
    </g>
    <g class="aus--nsw">
        <path d="M2242.22,1287.43l-5.7,2.9-.46,2.45,1.44,2.58-8.45,2.42-2.34.74-.32.11-5.94,2.33-.93.38-.57.35-.43.38-.19.24-7.79,9.88-.33.48-2.03,5.15-2.09,4.01-1.12,1.85-1.19,1.47.14-.59-.17-.28-.29-.11-.87.02-.43.08-1.32.44-2.6,1.66-.21.27-.7,1.82.17.59.13.27.19.24.27.17.74.16.43-.03.16,1.25.24-.26.17-.11.25-.02.14.1-.04.21-1.95,5.84-.19.27-6.43,7.16-2.47,15.33-1.38,4.1-1.55,1.22-.12.13-.14.09-.23.05-.19-.1-.22-.26-2.93-.11-4.2.84-.28.19-.19.19-.02.4.24.21,2.22.89.38.09.24-.19.25-.59.29-.19.38-.03,1.17,1.68.26.03.33.19.1.16.03.19-.07.19-.11.13-4.43,5.63-.48.38-.97.36-.9.44-.76.49-1.49,1.06-.78.57-.43.38-2.3,2.83-.93,1.19-1.47,1.9-5.34,12.92,1.98,1.47.35.86-.44,3.53-2.04,6.53-.21.62-.25.19-.33.14-1.14.17-.33.11-.62.25-.54.35-.44.44-.35.46-.44.81-.68,1.82.32.89,1.84,4.36,3.37,2.87.38.1.27.19.19.24-.06.35-.81,3.17-.16.27-.19.24-1.03.71-.29.19-.33.11-1.66-1.33-.1-.3.11-.32.19-.22.25-.19.3-.54.11-.3-.56-2.07-.19-.24-.27-.16-.38-.09-.43-.05-.43.03-.62.22-2.55,1-.28.14-.25.19-.19.22-.11.32-.16.65-.1,1.12,1.47,2.91-3.18,2.95-1.73.55-2.6.9-.87.44-.29.19-.25.19-.38.46-3.07,4.62-.06.35-.3,2.09.03.3-4.21,9.8-2.9,3.83-4.59,8.03-6.43,11.67-1.43,9.76.22,7.52.18.67.06.65-.25,2.9-.06.35-.3.46-.46.46-1.28.89-.65.6-.76,1.03-.25.57-.52,1.93-.82,4.04.03.35-1.63,7.03-2.33,7.14-.32.87-.6,1.49-1.59,3.56-2.06,3.77.24,8.31,1.82,2.68.4-.08.33.17,3.01,2.23.27.55.62,3.69-.03,1.89-1.43-.43-.49-.02-1.65.97-.49.38-.21.22-.11.3.35,5.69.1,1.05.21.97.27.55.93,1.95.17.62.09,1.06-.02.38-.09.47-.59-.26-12.91-5.1-12.4-4.94-14.76-5.92-10-4.02-13.29-5.38-15.63-6.34-6.62-2.71-5.19-2.17-3.29-1.36-6.18-2.55-.44-.05-2.04.27-.43-.06-2.44-.52,1.84-3.17.41-.46,1.03-1.16,1.2-1.38.32-.49.35-.97.22-1.38.05-.78-.16-.62-.13-.24-4.59-7.97-.35-.48-.24-.21-.84-.49-.78-.54-.92-.81-.59-.68-.43-.79-.11-.67-1.17-9.11-1.46-9.2-.56-.33-4.73-2.44-1.17-.59-9.19-3.25-.7-.19-.49.02-.68.16-3.39,1.46-6.86-.81-.51-.36-.32-.13-.43-.06-.43.02-4.31.52-.33.09-.51.41-2.12,2.19-.16.32-2.68,2.63-5.16.4-8.95,2.66-.42.07-.56.03-7.31-.45-2.6-.62-10.14-2.61-1.69-.98-3-2.2-.85-.13-5.27-.68-.38.02-2.9.24-.98.3-1.35,1.3-.33.52-5.8,1.84-11.8-.84-16.3-2.5-3.55-1.12-.87-.48-2.68-1.69-.51-.43-.79-.86-2.31-2.03-3.45-2.3-.54-.33-.33-.14-.41-.06-.44.02-.77.11-3.41.59-1.01.25-1.2.55-1.49,1.12-.99.32-.82.11-3.48-.19-1.33-.16-.33-.1-.93-.79-.81-.52-.43-.06-6.59.16-1.16.17-5.46,1.11-.35.1-.3.13-.52.4-.38.49-.13.3-1.88,5.4-.06.7.25.9.17.25.48,4.29-8.25,1.92-1.82.38-2.03-.4-.38-.13-6.72-3.18-.27-.17-1.14-1.03-10.72-10.28-.59-1.36-.36-.79-.68-1.33-.62-1.01-.66-.97-.89-.84-.81-.52-.74-.21-1.81-.22-.63-.32-5.23-3.85-.48-.41-1.69-1.71-1.02-1.46-.32-.54-1.14-1.05-1.09-.57-1.12-.32-7.54-3.37-8.54-5.26-.44-.41-3.18-1.04-.43-.06-.63.22-1.43.38-.81-.09-1.44-.78-1.55-1.11-.49-.43-.38-.41-.33-.49-.11-.29-.02-.35.22-.68.16-.22.48-.4.38-.49.3-.6-.05-.32-.13-.27-1.74-2.39-.27-.17-.38-.1-2.38-.52-1.6-.22-.73-.21-3.29-1.33-.6-.67-.33-.49-2.11-3.93-.38-.81-.29-.89-.35-1.19-.66-4.48-.02-.36.27-3.79.3-.57.21-.22.27-.17.29-.57.05-.35.06-3.26-.06-.32-.55-.66-.27-.17-4.15-2.01-.32-.14-7.16-3.09-.73-.25-.48-.03-.76.09-.35.1-.9-.03-2.63-.19-3.01-.27-6.72-2.25-.4-1.17-.16-.24-.49-.4-2.74-1.68-.43-.08-.43.05-2.68.73-.52.35-.6.74-.25.55-1.24,3.42-.49,3.01-2.06,2.34-.22.25-.52.3-.38.06-3.71-.84-1.04-.4-.48-.35-.49-.38-.47-.74.21-1-.11-.67-2.85-6.16-.32-.49-.38-.46-.7-.57-1.88-1.24-1.17-.63-.78-.57-.16-.25-.02-.3-.27-6.27.3-1.43-7.71-10.88-.47-.4-4.21-2.33-.27-.14-6.05-2.31-.78-.19-.89.02-.73.1-.3.13-1.31.82-.3.14-.4.05-4.39.38-5.18-.9-2.03-.79-1.25-.19-.38.1-3.29,1.01-1.28.4-.51.3-1.68,1.82-.82,1.33-.22.22-.52.4-1.92,1.05-.35.08-.41-.06-.43-.47-.41-.78-6.08-3.1-.59-.28-9.06-3.47-5.37-.48-1.87-.16-2.04.1-1.13-.11-.95-.23-.42-.23-.88-.66-1.58-1.43.15-1.4.02-6.33-.05-116.6.02-75.04.03-1.62-.05-36.44.05-43.68.1-5.32h.81s5.98-.06,5.98-.06l9.44.02,34.3-.02,21.38.03,21.43.02,29.86-.02,7.27-.03,23.25.03,2.25.02,83.08-.05,18.55.02,5.97.02,8.82.02,13.54-.05,24.55.05,48.11-.02,2.55-.03,72.99.03,3.49.02,15.94-.03,3.8-1.68.32-.14.74-.52.41-.41.57-.68,4.96-5.78,5.78-4.29,3.82-2.34,8.17-6.78.78-.44.33-.14,2.3-.67,1.39-.32,1.96-.21,1.2.08.52.33.33.47.1,1.11.13.27.65.22,4.44.73,10.52-1.14,5.67-.06.84-.02,1.08-.24,4.37-1.09.63-.22.73-.49.46-.38.91-.4,1.08-.21,6.79-.71.81-.06.74.14.89.41,2.82,2.22.38.44.41.84.62.6,3.14,1.92.51.22.96.1,8.16.08.79-.06,2.83-.55,1.71-.43,1.3-.4.36-.08.76-.13.84-.03.81.14,13.8,5.62.3.13.27.16,10.23,8.27,3.91,2.47.13.27.57,3.74-.05.35-.21.62.32,3.85,1.77,3.94.35.48.44.4.25.16.36.09.4-.03,2.81-.62,2.47-2.19.55-.7,2.46-3.74-.03-.74.33-.93.38-.82.57-1.08.87-1.36.63-.38,9.38-3.71.27.16.82,1.65.81,1.54.4.49.52.27,2.75,1.03.4.05,10.19-4.12.51-.38.17-.24.24-.59,1.46-8.65-2.46-5.16-.6-.68-2.2-3.79-.05-.35.06-.35.09-.32.17-.24.46-.38,4.91-2.9,6.23-2.74.32-.11,5.59-1.69,5.13-1.38.66-.19.54-.3,1.35-.81.41-.38.17-.29.74-2.06.17-.24,3.15-2.31.62-.22.37-.08.44.02.35.08.32.11.25.16.4.44.13.27,3.39,2.93,9.14,1.81.4.05,1.92-.17.71-.16.52-.27,7.3-.41,8.98.78.89-.4.54-.3.17-.19,1.35-2,1.49-2.14.49-.43.54-.32,5.05-.74.81-.08,1.28.05,6.05-2.17.98-.7,1.47-1.05,1.78-1.31.78,1.17.17.22.22.21.54.32.4.03.44-.03.63-.16.3.16.52,1.09.14.59.7,3.29.05.35-.38,4.5-.09.71-.27,1.71-.22.98-.32,1.25-.41,1.25-.14,1.44.17,2.58.38,2.74.14.67.22.63.3.54.36.44.44.43.66.54.76.9.3.52-.93,10.9-.05.35-.21.6-.16.27-.98,1.12-.63.59-.66.59-1.66,1.28-.81.86-1.52,1.84-.73.9-.36.46-1.2,1.73-.41.81-.59,1.41-4.45,11.2-.46,1.17-.32.9-.19.63-.17,1.01.03.35.17.67.09.27.35.48.22.21.27.14.44.4.19.24-.1.74-1.08,7.46-3.1,14.38-2.19,9.76-2.79,9.25-1.98,5.15-1.84,3.07-5.92,14.24-.17.62-.71,2.8-.3,2.31-.46,6.37-.08,3.23-.02.79.03,1.79.08.71.71,2.46.1.32.27.16,1.32.13,1.09-.14.48,3.55-1.28,4.93-4.53,11.88-1.08,6.62-3.86,10.25-1.41,3.85-.73,2.85-1.17,2.72-3.88,6.05-4.32,4.53-1.12,1-.84.86-1.44,1.5-1.77,2.01-2.06,2.57-2.38,5.12-.24.59-.1.32,1.79,7.35-.66,7.98-7.57,5.54-1.13.6-1.22.97-1.6,1.39-2.68,2.77-3.04,1.71Z" fill="currentColor"/>
    </g>
</svg>
