<svg xmlns="http://www.w3.org/2000/svg" viewBox="0 0 27 28">
    <path d="M5.136,27.194.778,22.676a2.906,2.906,0,0,1,0-3.957l.54-.56L9.5,26.635l-.541.56A2.549,2.549,0,0,1,7.046,28,2.549,2.549,0,0,1,5.136,27.194Zm6.826-.98L1.724,15.6a1.387,1.387,0,0,1,0-1.961L3.65,11.61a1.313,1.313,0,0,1,1.926,0L7.7,13.816,13.314,8,11.185,5.8a1.387,1.387,0,0,1,0-1.961L13.111,1.8a1.313,1.313,0,0,1,1.926,0L25.277,12.416a1.43,1.43,0,0,1,0,2l-1.96,2a1.275,1.275,0,0,1-1.892,0L19.3,14.2l-5.609,5.813,2.128,2.207a1.43,1.43,0,0,1,0,2l-1.96,2a1.275,1.275,0,0,1-1.892,0ZM17.437,1.383l.575-.595A2.51,2.51,0,0,1,19.938,0a2.628,2.628,0,0,1,1.926.824l4.359,4.518A2.738,2.738,0,0,1,27,7.32,2.742,2.742,0,0,1,26.222,9.3l-.608.56Z" fill="currentColor"/>
</svg>
