<svg xmlns="http://www.w3.org/2000/svg" viewBox="0 0 36 32" fill="currentColor">
    <path d="M7.6,32A3.585,3.585,0,0,1,4,28.4a3.566,3.566,0,0,1,.6-1.975A3.354,3.354,0,0,1,6.2,25.1L14,22V17.5a18.609,18.609,0,0,1-6.275,4.825A17.979,17.979,0,0,1,0,24V20a13.513,13.513,0,0,0,6.175-1.4,16.441,16.441,0,0,0,5.025-4l2.7-3.2a3.877,3.877,0,0,1,1.4-1.05A4.2,4.2,0,0,1,17,10h2a4.2,4.2,0,0,1,1.7.35,3.877,3.877,0,0,1,1.4,1.05l2.7,3.2a16.441,16.441,0,0,0,5.025,4A13.513,13.513,0,0,0,36,20v4a17.979,17.979,0,0,1-7.725-1.675A18.609,18.609,0,0,1,22,17.5V22l7.8,3.1a3.354,3.354,0,0,1,1.6,1.325A3.566,3.566,0,0,1,32,28.4,3.585,3.585,0,0,1,28.4,32H14V31a2.907,2.907,0,0,1,3-3h6a1,1,0,1,0,0-2H17a4.951,4.951,0,0,0-5,5v1Z"/>
    <path d="M18,8a3.852,3.852,0,0,1-2.825-1.175A3.852,3.852,0,0,1,14,4a3.852,3.852,0,0,1,1.175-2.825,3.984,3.984,0,0,1,5.65,0A3.852,3.852,0,0,1,22,4a3.852,3.852,0,0,1-1.175,2.825A3.852,3.852,0,0,1,18,8Z"/>
</svg>
