<svg xmlns="http://www.w3.org/2000/svg" viewBox="0 0 30.01 30">
    <path d="M25.55,13.34c2.36-3.71,3.88-7.89,4.45-12.25.05-.55-.35-1.04-.9-1.09-.06,0-.13,0-.19,0-4.36.57-8.54,2.09-12.25,4.45l-5.35-.34c-1.43-.09-2.84.44-3.85,1.46l-4.74,4.74c-.28.28-.37.69-.23,1.06.14.37.48.62.87.65l5.01.36c-.5.72-.98,1.49-1.44,2.29-.22.39-.15.88.16,1.2l.76.76-1.37,1.37-.06-.06c-.42-.36-1.05-.31-1.41.11-.32.37-.32.93,0,1.3l.44.44C2.47,21.96.5,25.26,0,28.91c-.05.55.36,1.04.91,1.09.03,0,.06,0,.09,0h.09c3.66-.49,6.96-2.45,9.13-5.44l.79.79c.19.19.44.29.71.29.27,0,.52-.11.71-.29.39-.39.39-1.02,0-1.41l-.06-.06,1.37-1.37.41.41c.19.19.44.29.71.29.17,0,.34-.04.49-.13.79-.44,1.55-.92,2.29-1.43l.36,5.01c.03.39.28.73.65.87.11.04.23.06.35.06.27,0,.52-.1.71-.29l4.74-4.74c1.02-1.01,1.55-2.42,1.45-3.85l-.34-5.35v-.02ZM18.31,18.59l-6.91-6.91c2.88-3.39,6.53-6.05,10.65-7.73l3.98,3.98c-1.68,4.12-4.33,7.77-7.73,10.65h.01ZM26.82,5.88l-2.7-2.7c1.21-.41,2.44-.74,3.69-.98-.25,1.25-.57,2.48-.98,3.69h-.01ZM5.68,10.18l3.19-3.19c.61-.61,1.45-.93,2.31-.87l2.88.18c-1.56,1.24-2.99,2.64-4.26,4.18l-4.13-.29h0ZM2.28,27.72c.72-2.64,2.36-4.94,4.62-6.48l1.86,1.86c-1.54,2.27-3.84,3.91-6.48,4.62ZM10.94,22.46l-3.04-3.04,1.37-1.37,3.04,3.04-1.37,1.37ZM15,20.96l-5.95-5.95c.36-.6.73-1.17,1.12-1.71l6.54,6.54c-.54.39-1.11.76-1.71,1.12ZM23.01,21.14l-3.19,3.19-.29-4.13c1.54-1.27,2.94-2.7,4.18-4.26l.18,2.88c.05.86-.26,1.7-.87,2.31h0Z" fill="currentColor"/>
    <path d="M21.58,13.37h0c1.36-1.37,1.36-3.57,0-4.94-1.39-1.32-3.56-1.32-4.95,0-1.36,1.37-1.36,3.59,0,4.95.66.65,1.54,1.02,2.47,1.02.93,0,1.82-.37,2.47-1.03ZM20.17,11.96h0c-.59.57-1.53.57-2.12,0-.59-.59-.59-1.54,0-2.12.59-.59,1.54-.59,2.12,0s.59,1.54,0,2.12c0,0,0,0,0,0Z" fill="currentColor"/>
</svg>
