<svg xmlns="http://www.w3.org/2000/svg" viewBox="0 0 1110.59 1045.26">
    <g fill="currentColor">
        <path d="M663.87,810.41h4.22l20.27,50.87h-4.07l-5.81-14.82h-25l-5.81,14.82h-4.07l20.27-50.87ZM654.93,842.96h22.09l-11.04-28.34-11.04,28.34Z"/>
        <path d="M728.03,810.41h3.78v31.75c0,11.84-6.47,19.98-18.09,19.98s-18.09-8.14-18.09-19.98v-31.75h3.78v31.39c0,9.88,4.22,16.64,14.32,16.64s14.31-6.76,14.31-16.64v-31.39Z"/>
        <path d="M757.82,837.08c-7.48-3.27-13.66-7.19-13.66-14.9,0-5.74,4.65-12.64,14.17-12.64s13.81,7.34,13.81,7.34l-2.91,2.25s-3.63-5.89-10.83-5.89c-6.39,0-10.46,3.85-10.46,8.94,0,6.25,5.74,9.01,13.01,12.21,7.77,3.41,12.14,7.34,12.14,14.17,0,8.21-6.69,13.59-15.19,13.59-11.19,0-15.77-10.39-15.77-10.39l3.41-2.03s3.34,8.72,12.35,8.72c6.32,0,11.41-3.78,11.41-9.88s-5.52-8.87-11.48-11.48Z"/>
        <path d="M793.64,813.9h-15.33v-3.49h34.44v3.49h-15.33v47.38h-3.78v-47.38Z"/>
        <path d="M820.31,810.41h12.28c10.46,0,16.49,6.03,16.49,14.39,0,10.97-9.59,13.81-13.15,14.17l14.53,22.31h-4.58l-14.24-22.09h-7.56v22.09h-3.78v-50.87ZM832.81,835.55c7.63,0,12.35-4.07,12.35-10.75s-4.8-10.75-12.35-10.75h-8.72v21.51h8.72Z"/>
        <path d="M874.08,810.41h4.22l20.27,50.87h-4.07l-5.81-14.82h-25l-5.81,14.82h-4.07l20.27-50.87ZM865.14,842.96h22.09l-11.04-28.34-11.04,28.34Z"/>
        <path d="M905.83,810.41h3.78v47.38h24.27v3.49h-28.05v-50.87Z"/>
        <path d="M942.31,810.41h3.78v50.87h-3.78v-50.87Z"/>
        <path d="M974.64,810.41h4.22l20.27,50.87h-4.07l-5.81-14.82h-25l-5.81,14.82h-4.07l20.27-50.87ZM965.71,842.96h22.09l-11.04-28.34-11.04,28.34Z"/>
        <path d="M1010.18,810.41l31.25,44.33v-44.33h3.78v50.87h-3.78l-31.25-44.47v44.47h-3.78v-50.87h3.78Z"/>

        <g fill="#a36f43">
            <path d="M687.26,912.14l2.62,2.62c-4.43,5.16-11.12,8.43-18.82,8.43-14.68,0-25.14-11.63-25.14-26.3s10.46-26.3,25.14-26.3c7.41,0,13.66,2.98,18.09,7.78l-2.69,2.47c-3.71-4.07-9.08-6.54-15.4-6.54-12.64,0-21.22,10.1-21.22,22.6s8.57,22.6,21.22,22.6c6.76,0,12.57-2.98,16.2-7.34Z"/>
            <path d="M712.77,871.45h4.22l20.27,50.87h-4.07l-5.81-14.82h-25l-5.81,14.82h-4.07l20.27-50.87ZM703.83,904h22.09l-11.04-28.34-11.04,28.34Z"/>
            <path d="M744.52,871.45h3.78v47.38h24.27v3.49h-28.05v-50.87Z"/>
            <path d="M781,871.45h3.78v50.87h-3.78v-50.87Z"/>
            <path d="M811.81,898.12c-7.48-3.27-13.66-7.19-13.66-14.9,0-5.74,4.65-12.64,14.17-12.64s13.81,7.34,13.81,7.34l-2.91,2.25s-3.63-5.89-10.83-5.89c-6.39,0-10.46,3.85-10.46,8.94,0,6.25,5.74,9.01,13.01,12.21,7.77,3.41,12.14,7.34,12.14,14.17,0,8.21-6.69,13.59-15.19,13.59-11.19,0-15.77-10.39-15.77-10.39l3.41-2.03s3.34,8.72,12.35,8.72c6.32,0,11.41-3.78,11.41-9.88s-5.52-8.87-11.48-11.48Z"/>
            <path d="M847.63,874.94h-15.33v-3.49h34.44v3.49h-15.33v47.38h-3.78v-47.38Z"/>
            <path d="M907.36,871.45h3.78v50.87h-3.78v-24.34h-29.28v24.34h-3.78v-50.87h3.78v23.03h29.28v-23.03Z"/>
            <path d="M927.7,894.48h22.67v3.49h-22.67v20.86h24.85v3.49h-28.63v-50.87h28.19v3.49h-24.42v19.55Z"/>
            <path d="M966.79,871.45l31.25,44.33v-44.33h3.78v50.87h-3.78l-31.25-44.47v44.47h-3.78v-50.87h3.78Z"/>
            <path d="M1015.62,871.45h3.78v50.87h-3.78v-50.87Z"/>
            <path d="M1071.36,912.14l2.62,2.62c-4.43,5.16-11.12,8.43-18.82,8.43-14.68,0-25.14-11.63-25.14-26.3s10.46-26.3,25.14-26.3c7.41,0,13.66,2.98,18.09,7.78l-2.69,2.47c-3.71-4.07-9.08-6.54-15.4-6.54-12.64,0-21.22,10.1-21.22,22.6s8.57,22.6,21.22,22.6c6.76,0,12.57-2.98,16.2-7.34Z"/>
            <path d="M1095.33,898.12c-7.48-3.27-13.66-7.19-13.66-14.9,0-5.74,4.65-12.64,14.17-12.64s13.81,7.34,13.81,7.34l-2.91,2.25s-3.63-5.89-10.83-5.89c-6.39,0-10.46,3.85-10.46,8.94,0,6.25,5.74,9.01,13.01,12.21,7.77,3.41,12.13,7.34,12.13,14.17,0,8.21-6.68,13.59-15.19,13.59-11.19,0-15.77-10.39-15.77-10.39l3.41-2.03s3.34,8.72,12.35,8.72c6.32,0,11.41-3.78,11.41-9.88s-5.52-8.87-11.48-11.48Z"/>
        </g>

        <path d="M659.21,935.97h-15.33v-3.49h34.44v3.49h-15.33v47.38h-3.78v-47.38Z"/>
        <path d="M718.94,932.48h3.78v50.87h-3.78v-24.34h-29.28v24.34h-3.78v-50.87h3.78v23.03h29.28v-23.03Z"/>
        <path d="M739.29,955.52h22.67v3.49h-22.67v20.86h24.85v3.49h-28.63v-50.87h28.19v3.49h-24.42v19.55Z"/>
        <path d="M789.35,932.48h4.22l20.27,50.87h-4.07l-5.81-14.82h-25l-5.81,14.82h-4.07l20.27-50.87ZM780.42,965.04h22.09l-11.04-28.34-11.04,28.34Z"/>
        <path d="M829.17,935.97h-15.33v-3.49h34.44v3.49h-15.33v47.38h-3.78v-47.38Z"/>
        <path d="M855.84,932.48h12.28c10.46,0,16.49,6.03,16.49,14.39,0,10.97-9.59,13.81-13.15,14.17l14.53,22.31h-4.58l-14.24-22.09h-7.56v22.09h-3.78v-50.87ZM868.34,957.63c7.63,0,12.35-4.07,12.35-10.75s-4.8-10.75-12.35-10.75h-8.72v21.51h8.72Z"/>
        <path d="M898.64,955.52h22.67v3.49h-22.67v20.86h24.85v3.49h-28.63v-50.87h28.19v3.49h-24.42v19.55Z"/>
        <path d="M687.26,1034.21l2.62,2.62c-4.43,5.16-11.12,8.43-18.82,8.43-14.68,0-25.14-11.63-25.14-26.3s10.46-26.3,25.14-26.3c7.41,0,13.66,2.98,18.09,7.77l-2.69,2.47c-3.71-4.07-9.08-6.54-15.4-6.54-12.64,0-21.22,10.1-21.22,22.6s8.57,22.6,21.22,22.6c6.76,0,12.57-2.98,16.2-7.34Z"/>
        <path d="M694.82,1018.95c0-14.68,10.68-26.3,25.14-26.3s25.14,11.63,25.14,26.3-10.61,26.3-25.14,26.3-25.14-11.63-25.14-26.3ZM698.74,1018.95c0,12.5,8.5,22.6,21.22,22.6s21.22-10.1,21.22-22.6-8.5-22.6-21.22-22.6-21.22,10.1-21.22,22.6Z"/>
        <path d="M758.25,993.52l19.47,31.25,19.47-31.25h3.56v50.87h-3.78v-43.38l-19.26,30.66-19.33-30.59v43.31h-3.71v-50.87h3.56Z"/>
        <path d="M813.55,993.52h13.01c9.88,0,16.06,6.39,16.06,14.75s-6.18,14.75-16.06,14.75h-9.23v21.36h-3.78v-50.87ZM826.63,1019.54c7.12,0,12.06-4.58,12.06-11.26s-4.94-11.26-12.06-11.26h-9.3v22.53h9.3Z"/>
        <path d="M863.03,993.52h4.22l20.27,50.87h-4.07l-5.81-14.82h-25l-5.81,14.82h-4.07l20.27-50.87ZM854.1,1026.08h22.09l-11.04-28.34-11.04,28.34Z"/>
        <path d="M898.57,993.52l31.25,44.33v-44.33h3.78v50.87h-3.78l-31.25-44.47v44.47h-3.78v-50.87h3.78Z"/>
        <path d="M958.73,1024.4l-17.58-30.88h4.36l15.19,27.03,15.19-27.03h4.22l-17.58,30.88v19.98h-3.78v-19.98Z"/>
    </g>
    <g fill="currentColor">
        <path d="M59.52,581.33c16.37-9.83,33.9-18.02,52.58-24.57,18.67-6.54,37.67-12.78,57-18.67,19.32-5.9,37.84-11.79,55.52-17.69,17.69-5.89,33.41-13.42,47.17-22.6,13.76-9.17,24.72-20.64,32.92-34.4,8.18-13.76,12.28-30.79,12.28-51.1h.98c-4.59-36.03-17.86-62.56-39.8-79.6-21.96-17.03-46.68-25.55-74.2-25.55-15.72,0-31.62,2.63-47.66,7.87-16.06,5.25-30.96,13.11-44.71,23.58-13.76,10.49-26.04,23.1-36.85,37.84-10.81,14.74-18.84,31.94-24.08,51.59l-15.72-2.94c5.9-22.93,15.06-42.75,27.52-59.46,12.44-16.7,26.53-30.62,42.26-41.76,15.72-11.13,32.92-19.32,51.59-24.57,18.67-5.23,37.18-7.86,55.52-7.86,20.96,0,41.27,3.11,60.93,9.33,19.65,6.24,37.01,15.57,52.08,28.01,15.06,12.45,27.18,27.52,36.36,45.21,9.17,17.69,13.76,38.01,13.76,60.93v357.72h-14.74l-40.29-79.6c-17.69,30.14-42.6,53.07-74.69,68.79-32.11,15.72-65.84,23.59-101.22,23.59-17.04,0-33.41-1.97-49.14-5.9-28.18-7.2-50.12-19.98-65.84-38.32-15.72-18.33-25.06-38.48-28.01-60.44-2.95-21.94.32-43.88,9.83-65.84,9.49-21.94,25.7-39.8,48.65-53.56ZM119.47,771c7.86,3.93,16.05,6.72,24.57,8.35,8.51,1.64,17.35,2.46,26.53,2.46,17.69,0,35.04-2.95,52.08-8.84,17.03-5.9,32.43-14.08,46.19-24.57,13.76-10.47,25.21-22.44,34.4-35.87,9.17-13.42,14.4-27.34,15.72-41.76v-207.36c-9.83,21.62-24.57,38.01-44.22,49.14-19.65,11.15-40.78,20.48-63.39,28.01-22.6,7.54-45.21,15.57-67.81,24.08-22.6,8.53-41.77,21.3-57.49,38.33-10.49,11.79-17.54,25.89-21.13,42.26-3.61,16.39-3.93,32.77-.98,49.14,2.95,16.38,9.17,31.45,18.67,45.21,9.49,13.75,21.77,24.25,36.85,31.45Z"/>
        <path fill="#a36f43" d="M339.41,1006.93c24.23,12.45,49.78,18.67,76.65,18.67,30.13,0,58.63-7.37,85.5-22.11,26.86-14.74,47.82-35.21,62.9-61.42,1.3,1.32,3.76,2.63,7.37,3.93,3.59,1.32,5.07,2.63,4.42,3.93-19.01,32.77-44.39,56.85-76.16,72.23-31.79,15.38-65.03,23.09-99.75,23.09-41.27,0-79.94-9.49-115.96-28.5-41.27-21.62-72.08-53.07-92.38-94.35-20.31-41.27-30.46-84.84-30.46-130.7s10.15-89.43,30.46-130.71c20.3-41.27,51.1-72.72,92.38-94.34,36.02-18.99,74.69-28.5,115.96-28.5,34.72,0,67.96,7.71,99.75,23.09,31.77,15.4,57.15,39.48,76.16,72.23.65,1.32-.83,2.63-4.42,3.93-3.61,1.32-6.07,2.63-7.37,3.93-15.08-26.2-36.04-46.68-62.9-61.42-26.87-14.74-55.37-22.11-85.5-22.11-26.87,0-52.42,6.23-76.65,18.67-25.55,13.12-47.02,31.13-64.37,54.05-17.37,22.94-30.31,48-38.82,75.18-8.52,27.2-12.78,55.7-12.78,85.5s4.25,58.47,12.78,85.99c8.51,27.52,21.45,52.58,38.82,75.18,17.35,22.6,38.82,40.78,64.37,54.54Z"/>
        <path d="M370.1,254.53h69.77V24.57l-39.31-16.71V0h96.31v254.53h131.69v14.74h-131.69v365.58c-.66,22.28,1.63,40.46,6.88,54.54,5.24,14.1,12.44,25.06,21.62,32.92,13.1,11.15,29.81,16.71,50.12,16.71,27.52,0,56.66-9.83,87.46-29.48l7.86,9.83c-21.62,13.11-41.44,22.11-59.46,27.03-18.03,4.91-34.24,7.37-48.65,7.37-41.27,0-72.08-12.13-92.38-36.36-20.31-24.23-30.46-57-30.46-98.27v-349.86h-69.77v-14.74Z"/>
        <path d="M701.72,509.53c24.23,12.45,49.78,18.67,76.65,18.67,30.13,0,58.63-7.37,85.5-22.11,26.86-14.74,47.82-35.21,62.9-61.42,1.3,1.32,3.76,2.63,7.37,3.93,3.59,1.32,5.07,2.63,4.42,3.93-19.01,32.77-44.39,56.85-76.16,72.23-31.79,15.38-65.03,23.09-99.75,23.09-41.27,0-79.94-9.49-115.96-28.5-41.27-21.62-72.08-53.07-92.38-94.35-20.31-41.27-30.46-84.84-30.46-130.7s10.15-89.43,30.46-130.71c20.3-41.27,51.1-72.72,92.38-94.34,36.02-18.99,74.69-28.5,115.96-28.5,34.72,0,67.96,7.71,99.75,23.09,31.77,15.4,57.15,39.48,76.16,72.23.65,1.32-.83,2.63-4.42,3.93-3.61,1.32-6.07,2.63-7.37,3.93-15.08-26.2-36.04-46.68-62.9-61.42-26.87-14.74-55.37-22.11-85.5-22.11-26.87,0-52.42,6.23-76.65,18.67-25.55,13.12-47.02,31.13-64.37,54.05-17.37,22.94-30.31,48-38.82,75.18-8.52,27.2-12.78,55.7-12.78,85.5s4.25,58.47,12.78,85.99c8.51,27.52,21.45,52.58,38.82,75.18,17.35,22.6,38.82,40.78,64.37,54.54Z"/>
    </g>
</svg>
